<svg width="135" height="106" viewBox="0 0 135 106" fill="none" xmlns="http://www.w3.org/2000/svg">
<path d="M77.4045 15.854C46.3143 7.6482 16.6201 17.5625 11.0627 37.9921C5.50535 58.4217 26.1887 81.6324 57.2789 89.8382C88.3691 98.044 118.063 88.1297 123.621 67.7001C129.178 47.2705 108.495 24.0597 77.4045 15.854ZM64.702 62.5501C57.1453 60.5557 51.0676 56.5273 47.8263 51.9964C52.288 48.6383 60.0628 47.5623 68.1952 49.7087C76.3276 51.8551 82.5146 56.6161 84.6739 61.7217C79.495 64.0303 72.2586 64.5446 64.702 62.5501Z" fill="url(#paint0_linear)"/>
<path d="M68.1493 49.7723C76.2889 51.9224 82.4814 56.6914 84.6427 61.8056C88.1597 60.228 90.6309 57.6691 91.4851 54.5264C93.6107 46.7062 85.0384 37.6268 72.3607 34.2781C59.6831 30.9293 47.6542 34.567 45.5286 42.3872C44.6743 45.5299 45.5166 48.964 47.7622 52.0638C52.2279 48.7001 60.0096 47.6223 68.1493 49.7723Z" fill="url(#paint1_linear)"/>
<path d="M119.289 64.3366C119.855 61.1212 121.774 58.889 124.169 57.1739C121.795 39.8012 103.15 22.6716 77.3756 15.8671C50.4495 8.75842 24.5397 15.2208 14.4691 30.4035C13.6128 32.1337 12.9004 33.9019 12.4041 35.7271C11.2003 39.8697 10.8407 44.3133 11.8439 48.569C12.7826 52.4946 14.9773 54.6391 18.7335 55.8655C21.4296 56.7338 24.5651 57.405 26.7275 59.3845C29.1382 61.5859 30.551 64.6195 32.2592 67.418C34.4167 71.1176 37.8975 74.7754 42.2246 75.6048C46.3358 76.3771 49.9304 74.5091 53.7584 73.4851C57.9141 72.3912 61.5212 73.0305 65.0317 75.4441C68.5943 77.9497 71.9113 81.6424 76.2905 82.5638C80.6896 83.4122 84.1998 81.2871 87.6652 78.7589C90.1725 76.9168 92.995 74.7666 96.2372 74.7618C99.7152 74.741 102.801 76.7295 105.942 77.9499C108.814 79.0212 112.818 80.4696 115.641 78.3195C117.689 76.7474 118.863 73.849 119.086 71.3257C119.25 69.0213 118.89 66.657 119.289 64.3366ZM84.6477 61.7642C79.4669 64.0743 72.2278 64.5889 64.6683 62.5932C57.1089 60.5974 51.0288 56.5665 47.7863 52.0326C47.8782 51.9786 45.2712 47.3778 45.8346 45.0225C46.656 41.718 49.3446 40.628 52.2492 41.8644C54.1856 42.6886 55.9185 43.6939 58.0808 43.404C60.2232 43.1871 62.1645 42.291 64.2622 41.6711C67.7302 40.5521 71.8314 40.2263 74.9099 42.5258C76.7073 43.8611 77.8742 45.8125 79.7834 47.0208C81.6206 48.2101 83.7878 48.4692 85.8558 49.0934C88.6959 49.9997 91.186 51.9092 90.6004 55.1976C89.9552 58.7051 84.5435 61.5802 84.6477 61.7642Z" fill="#6B3525"/>
<path d="M94.8944 48.9057C92.7158 47.5467 90.2318 47.5956 87.795 47.1869C85.8102 46.8193 83.7932 46.2865 82.4542 44.6792C81.2195 43.2562 80.6282 41.4547 79.5774 39.9236C75.9752 34.4279 69.7479 37.1703 64.9316 39.2668C60.9945 40.9689 57.1195 41.5905 53.2717 39.5555C51.7141 38.7524 50.097 38.1685 48.4427 39.1417C47.3399 39.7905 46.4655 40.7347 46.0558 41.9584C45.6261 43.2551 45.5045 44.5549 45.8946 45.6764C45.8821 45.4381 45.8896 45.1267 45.9492 44.9074C46.7711 41.5989 49.4612 40.5076 52.3676 41.7455C54.3052 42.5707 56.0391 43.5772 58.2027 43.2869C60.3464 43.0697 62.2888 42.1726 64.3877 41.5519C67.8578 40.4316 71.9614 40.1054 75.0417 42.4077C76.8403 43.7446 78.0079 45.6983 79.9182 46.9081C81.7564 48.0988 83.925 48.3583 85.9942 48.9833C88.836 49.8907 91.3276 51.8024 90.7416 55.0949C90.096 58.6066 84.7531 61.5042 84.8053 61.5963C82.0556 62.907 78.6326 63.5697 74.8967 63.6796C79.4226 64.6402 84.3186 64.5233 88.4172 63.6473C91.9519 62.8575 96.9446 60.9642 98.1093 56.9628C98.74 54.0739 97.5375 50.5441 94.8944 48.9057Z" fill="url(#paint2_radial)"/>
<path d="M119.304 64.3295C119.87 61.1133 121.789 58.8806 124.185 57.165C122.418 44.6451 112.208 32.2438 96.923 23.7466C100.022 25.9737 103.009 28.3277 105.772 30.9359C111.352 36.2443 117.366 43.0762 119.427 50.8213C120.393 54.3637 120.123 57.3449 117.841 60.3429C116.776 61.7053 116.255 63.0548 116.086 64.8105C115.992 65.7248 116.002 66.8233 115.691 67.6806C115.222 69.1221 114.517 70.5796 113.264 71.5009C110.605 73.6165 107.367 74.1706 104.226 72.9499C100.673 71.5422 97.5048 70.7057 93.9916 71.4217C90.7516 72.8361 87.889 75.1328 84.7012 76.6392C80.7982 78.5047 76.853 79.1067 73.218 76.5815C71.0801 75.0778 69.2774 73.1929 67.0999 71.8353C64.5822 70.3096 61.702 69.5491 58.7921 70.0331C53.9755 70.7181 48.8561 74.2191 43.8952 72.5962C39.2224 71.0494 36.5878 66.8316 34.7725 62.4388C33.7966 60.0678 32.7958 57.2207 30.7175 55.4979C28.9595 54.0162 26.7671 53.2808 24.5549 52.6184C21.0465 51.6138 16.9622 50.4572 15.3083 46.8897C11.8045 39.6247 15.3519 31.4038 19.4258 24.6524C17.5017 26.3359 15.8979 28.2606 14.4903 30.3153C13.6338 32.0459 12.9214 33.8145 12.4249 35.6402C11.2012 39.8568 10.8415 44.3014 11.8449 48.5581C12.7837 52.4847 14.9787 54.6296 18.7353 55.8563C21.4317 56.7248 24.5676 57.3963 26.7303 59.3761C29.1413 61.5781 30.5543 64.6124 32.2627 67.4116C34.4205 71.1121 37.9018 74.7707 42.2294 75.6003C46.3411 76.3728 49.9361 74.5043 53.7646 73.4801C57.9208 72.386 61.5284 73.0254 65.0394 75.4396C68.6024 77.9457 71.9198 81.6393 76.2996 82.561C80.6993 83.4095 84.2099 81.2839 87.6758 78.7552C90.1833 76.9126 93.0062 74.7619 96.2488 74.7571C99.7272 74.7363 102.814 76.7253 105.954 77.9459C108.827 79.0175 112.832 80.4663 115.655 78.3156C117.703 76.7432 118.877 73.8441 119.101 71.3202C119.264 69.0153 118.904 66.6504 119.304 64.3295Z" fill="#472319"/>
<path opacity="0.3" d="M74.8309 17.5395C63.9163 15.3551 51.8005 14.1824 40.9031 16.7737C34.3791 18.3323 27.9437 21.5568 22.9605 26.2606C17.7936 31.0723 14.2853 42.5801 20.3442 47.8595C23.7727 50.8787 28.6917 48.9736 32.0777 46.741C43.4693 39.1966 42.7253 30.5525 52.4529 33.1267C62.1806 35.7009 67.3235 36.6708 74.7638 32.3044C82.204 27.9379 85.1843 32.3245 89.8781 38.6505C94.6439 44.9957 105.646 42.5885 105.938 36.9562C106.231 31.3239 90.7965 20.7477 74.8309 17.5395Z" fill="#F3A4BB"/>
<path d="M15.9143 45.9188C15.3314 46.0776 14.7957 45.78 14.6468 45.1936C14.498 44.6073 14.8006 44.0619 15.3835 43.9031L19.9947 42.5405C20.5776 42.3817 21.1134 42.6794 21.2622 43.2657C21.411 43.8521 21.1084 44.3975 20.5255 44.5563L15.9143 45.9188Z" fill="#E2023F"/>
<path d="M47.2886 59.2688C47.0485 58.7376 47.2985 58.1016 47.8283 57.8514C48.3581 57.6012 48.9845 57.8444 49.2246 58.3757L51.1061 62.7716C51.3463 63.3029 51.0962 63.9388 50.5664 64.189C50.0366 64.4392 49.4103 64.196 49.1701 63.6647L47.2886 59.2688Z" fill="#FFED00"/>
<path d="M73.099 29.9248C73.6293 29.6744 74.276 29.845 74.5164 30.3767C74.7567 30.9084 74.5783 31.5639 74.048 31.8143L69.8183 34.055C69.2881 34.3054 68.6413 34.1348 68.401 33.6031C68.1606 33.0714 68.339 32.4159 68.8693 32.1655L73.099 29.9248Z" fill="#F29FC5"/>
<path d="M37.8688 66.6769C37.6287 66.1456 37.8787 65.5097 38.4085 65.2595C38.9383 65.0093 39.5646 65.2525 39.8048 65.7838L41.6862 70.1796C41.9264 70.7109 41.6763 71.3468 41.1465 71.597C40.6168 71.8472 39.9904 71.604 39.7503 71.0727L37.8688 66.6769Z" fill="#3AAA35"/>
<path d="M79.5563 80.8749C79.4701 81.4745 78.9747 81.8881 78.383 81.8095C77.7913 81.7308 77.3894 81.2356 77.4756 80.636L78.074 75.8931C78.1602 75.2935 78.6556 74.8799 79.2473 74.9585C79.839 75.0372 80.2409 75.5324 80.1547 76.132L79.5563 80.8749Z" fill="#A58ABF"/>
<path d="M74.4478 65.6977C74.0237 65.2733 74.1302 64.5983 74.5567 64.164C74.9832 63.7298 75.6504 63.8277 76.0745 64.2521L79.1924 67.8091C79.6165 68.2335 79.51 68.9085 79.0835 69.3427C78.657 69.777 77.9898 69.6791 77.5657 69.2547L74.4478 65.6977Z" fill="#E30613"/>
<path d="M91.205 65.9112C91.1283 65.3459 91.5729 64.8404 92.2052 64.7738C92.7659 64.6883 93.2599 65.1302 93.3168 65.7682L93.6362 70.5242C93.7128 71.0895 93.2683 71.595 92.636 71.6616C92.0753 71.7471 91.5812 71.3052 91.5243 70.6673L91.205 65.9112Z" fill="#3AAA35"/>
<path d="M58.2919 70.1552C57.676 70.1491 57.2512 69.7236 57.266 69.101C57.2808 68.4785 57.7079 68.0431 58.3239 68.0492L63.1273 67.9868C63.7433 67.9928 64.168 68.4183 64.1532 69.0409C64.1384 69.6635 63.7113 70.0988 63.0953 70.0927L58.2919 70.1552Z" fill="#009FE3"/>
<path d="M113.575 70.4259C114 70.8503 113.965 71.5444 113.538 71.9787C113.112 72.413 112.425 72.388 112.001 71.9635L108.791 68.46C108.366 68.0355 108.401 67.3415 108.828 66.9072C109.254 66.4728 109.941 66.4979 110.365 66.9223L113.575 70.4259Z" fill="#E2023F"/>
<path d="M103.331 55.2089C102.978 55.6609 102.273 55.7086 101.831 55.3581C101.388 55.0075 101.351 54.2967 101.705 53.8447L104.787 50.1405C105.14 49.6885 105.844 49.6408 106.287 49.9913C106.729 50.3418 106.767 51.0527 106.413 51.5047L103.331 55.2089Z" fill="#FFED00"/>
<path d="M113.36 45.3232C112.915 44.9711 112.786 44.311 113.141 43.857C113.496 43.403 114.151 43.2631 114.596 43.6152L118.459 46.4349C118.903 46.787 119.032 47.4471 118.678 47.901C118.323 48.355 117.667 48.4949 117.223 48.1429L113.36 45.3232Z" fill="#F29FC5"/>
<path d="M98.2319 69.9046C97.8785 70.3565 97.174 70.4042 96.7315 70.0537C96.289 69.7032 96.2518 68.9924 96.6052 68.5404L99.6871 64.8362C100.041 64.3842 100.745 64.3365 101.188 64.687C101.63 65.0376 101.667 65.7484 101.314 66.2004L98.2319 69.9046Z" fill="#009FE3"/>
<path d="M101.837 32.5015C102.347 32.3237 102.975 32.5674 103.195 33.1725C103.364 33.6857 103.114 34.3227 102.511 34.5544L97.9856 36.173C97.4748 36.3508 96.8475 36.1071 96.6268 35.502C96.4581 34.9888 96.7086 34.3518 97.3112 34.1201L101.837 32.5015Z" fill="#A58ABF"/>
<path d="M89.1126 40.2916C89.1892 40.8569 88.7248 41.4352 88.1838 41.4482C87.6231 41.5338 87.0575 41.073 87.0525 40.5265L86.5906 35.7321C86.514 35.1667 86.9784 34.5884 87.5194 34.5755C88.0801 34.4899 88.5741 34.9318 88.6507 35.4972L89.1126 40.2916Z" fill="#E30613"/>
<path d="M82.2309 23.5684C81.7529 23.9105 81.1063 23.7399 80.7942 23.1894C80.4623 22.7117 80.6407 22.0565 81.1906 21.7333L85.3347 19.237C85.8128 18.8949 86.4593 19.0654 86.7714 19.6159C87.1033 20.0937 86.925 20.7489 86.375 21.072L82.2309 23.5684Z" fill="#3AAA35"/>
<path d="M99.8913 50.0814C100.131 50.6129 99.9532 51.2679 99.4232 51.5182C98.8933 51.7684 98.247 51.5979 98.0068 51.0665L95.9415 46.7773C95.7013 46.2459 95.8796 45.5909 96.4096 45.3406C96.9395 45.0903 97.5858 45.2608 97.826 45.7922L99.8913 50.0814Z" fill="#009FE3"/>
<path d="M22.6116 35.435C22.2594 35.0296 22.2743 34.4085 22.681 34.0471C23.0876 33.6857 23.7026 33.6917 24.0548 34.0971L26.9241 37.4321C27.2762 37.8375 27.2614 38.4586 26.8547 38.82C26.4481 39.1815 25.8331 39.1755 25.4809 38.7701L22.6116 35.435Z" fill="#E2023F"/>
<path d="M31.0167 48.8418C31.3702 48.3897 31.9833 48.3957 32.4258 48.7463C32.8683 49.0968 32.8535 49.7161 32.5 50.1682L29.588 53.5287C29.2543 53.9081 28.6214 53.9748 28.1788 53.6242C27.7363 53.2737 27.7511 52.6544 28.1046 52.2023L31.0167 48.8418Z" fill="#FFED00"/>
<path d="M28.3524 27.491C28.7967 27.843 28.8737 28.411 28.5187 28.8649C28.1638 29.3188 27.6004 29.4048 27.1561 29.0528L23.6536 26.329C23.2093 25.977 23.1323 25.409 23.4872 24.9551C23.8422 24.5012 24.4056 24.4152 24.8499 24.7672L28.3524 27.491Z" fill="#F29FC5"/>
<path d="M39.1195 33.6318C39.4729 33.1797 40.086 33.1857 40.5286 33.5362C40.8994 33.8678 40.9563 34.5061 40.6028 34.9581L37.6909 38.3185C37.3374 38.7705 36.7243 38.7645 36.2818 38.414C35.9109 38.0824 35.854 37.4442 36.2075 36.9922L39.1195 33.6318Z" fill="#584998"/>
<path d="M51.4713 33.0779C51.3851 33.6775 50.8896 34.0911 50.298 34.0125C49.7064 33.9339 49.3045 33.4387 49.3907 32.8391L49.9892 28.0961C50.0754 27.4965 50.5708 27.0829 51.1625 27.1615C51.7541 27.2401 52.1559 27.7354 52.0697 28.3349L51.4713 33.0779Z" fill="#F39200"/>
<path d="M50.0622 19.1248C49.638 18.7004 49.7446 18.0254 50.1711 17.5911C50.5976 17.1568 51.2648 17.2547 51.6889 17.6791L54.8067 21.2361C55.2308 21.6605 55.1242 22.3354 54.6977 22.7697C54.2712 23.204 53.6041 23.1061 53.1799 22.6817L50.0622 19.1248Z" fill="#E30613"/>
<path d="M63.6346 18.7953C63.558 18.23 64.0025 17.7245 64.6348 17.6579C65.1955 17.5724 65.6896 18.0143 65.7464 18.6522L66.0656 23.4083C66.1422 23.9735 65.6977 24.479 65.0654 24.5457C64.5047 24.6312 64.0107 24.1893 63.9538 23.5514L63.6346 18.7953Z" fill="#FFED00"/>
<path d="M33.9257 23.5099C33.3097 23.5038 32.885 23.0784 32.8998 22.4558C32.9146 21.8332 33.3418 21.3978 33.9577 21.4038L38.7611 21.3413C39.3771 21.3473 39.8018 21.7728 39.787 22.3954C39.7721 23.018 39.345 23.4534 38.7291 23.4473L33.9257 23.5099Z" fill="#009FE3"/>
<defs>
<linearGradient id="paint0_linear" x1="89.5534" y1="-28.852" x2="39.7975" y2="159.664" gradientUnits="userSpaceOnUse">
<stop stop-color="#E3CE9C"/>
<stop offset="0.4217" stop-color="#D8B279"/>
<stop offset="1" stop-color="#C68744"/>
</linearGradient>
<linearGradient id="paint1_linear" x1="74.737" y1="25.4933" x2="64.9866" y2="62.4063" gradientUnits="userSpaceOnUse">
<stop stop-color="#E1B36B"/>
<stop offset="0.4199" stop-color="#CC914C"/>
<stop offset="0.527" stop-color="#C68744"/>
<stop offset="1" stop-color="#8A4921"/>
</linearGradient>
<radialGradient id="paint2_radial" cx="0" cy="0" r="1" gradientUnits="userSpaceOnUse" gradientTransform="translate(87.1035 3.6976) rotate(14.7977) scale(65.2083 66.2927)">
<stop stop-color="#E4007E"/>
<stop offset="0.2905" stop-color="#E1017E"/>
<stop offset="0.508" stop-color="#D7067F"/>
<stop offset="0.7018" stop-color="#C70E7F"/>
<stop offset="0.8806" stop-color="#B11980"/>
<stop offset="1" stop-color="#9D2381"/>
</radialGradient>
</defs>
</svg>
