<svg width="36" height="36" viewBox="0 0 36 36" fill="none" xmlns="http://www.w3.org/2000/svg">
<path d="M31.7143 0H4.28571C1.92 0 0 1.92 0 4.28571V31.7143C0 34.08 1.92 36 4.28571 36H31.7143C34.08 36 36 34.08 36 31.7143V4.28571C36 1.92 34.08 0 31.7143 0ZM28.2857 12.8571H26.5714C24.7371 12.8571 24 13.2857 24 14.5714V17.1429H28.2857L27.4286 21.4286H24V34.2857H19.7143V21.4286H16.2857V17.1429H19.7143V14.5714C19.7143 11.1429 21.4286 8.57143 24.8571 8.57143C27.3429 8.57143 28.2857 9.42857 28.2857 9.42857V12.8571Z" fill="white"/>
</svg>
