<svg width="36" height="36" viewBox="0 0 36 36" fill="none" xmlns="http://www.w3.org/2000/svg">
<rect x="1.5" y="1.5" width="33" height="33" rx="4.5" stroke="white" stroke-width="3"/>
<path d="M10.4971 0C4.70857 0 0 4.71293 0 10.5029V25.5029C0 31.2914 4.71293 36 10.5029 36H25.5029C31.2914 36 36 31.2871 36 25.4971V10.4971C36 4.70857 31.2871 0 25.4971 0H10.4971ZM28.5 6C29.328 6 30 6.672 30 7.5C30 8.328 29.328 9 28.5 9C27.672 9 27 8.328 27 7.5C27 6.672 27.672 6 28.5 6ZM18 9C22.9635 9 27 13.0365 27 18C27 22.9635 22.9635 27 18 27C13.0365 27 9 22.9635 9 18C9 13.0365 13.0365 9 18 9ZM18 12C16.4087 12 14.8826 12.6321 13.7574 13.7574C12.6321 14.8826 12 16.4087 12 18C12 19.5913 12.6321 21.1174 13.7574 22.2426C14.8826 23.3679 16.4087 24 18 24C19.5913 24 21.1174 23.3679 22.2426 22.2426C23.3679 21.1174 24 19.5913 24 18C24 16.4087 23.3679 14.8826 22.2426 13.7574C21.1174 12.6321 19.5913 12 18 12Z" fill="white"/>
</svg>
