<svg width="547" height="427" viewBox="0 0 547 427" fill="none" xmlns="http://www.w3.org/2000/svg">
<g opacity="0.65">
<path opacity="0.65" d="M180.5 326.605H134V255.901H180.5V326.605ZM136 323.23H178.5V259.276H136V323.23ZM170 310.743H144.6V271.932H170V310.743ZM146.5 307.368H167.9V275.307H146.5V307.368Z" fill="#D51717"/>
</g>
<g opacity="0.65">
<path opacity="0.65" d="M242.3 161.404H194V88H242.3V161.404ZM196 158.029H240.3V91.3749H196V158.029ZM234.4 149.76H202V100.318H234.4V149.76ZM203.9 146.386H232.3V103.693H203.9V146.386Z" fill="#D51717"/>
</g>
<g opacity="0.65">
<path opacity="0.65" d="M167.6 227.15H77V129.928H167.6V227.15ZM79.7945 224.682H164.511V132.395H79.7945V224.682ZM156.128 214.812H88.4721V142.389H156.128V214.812ZM91.2666 212.344H153.039V144.857H91.2666V212.344Z" fill="#D51717"/>
</g>
<g opacity="0.62">
<path opacity="0.54" d="M546.4 182.839H472.5V110.785H546.4V182.839ZM474.5 179.464H544.4V114.16H474.5V179.464Z" fill="#D51717"/>
<path opacity="0.54" d="M466.5 182.839H392.6V110.785H466.5V182.839ZM394.6 179.464H464.5V114.16H394.6V179.464Z" fill="#D51717"/>
<path opacity="0.54" d="M546.4 147.572H472.5V110.785H546.4V147.572ZM474.5 144.197H544.4V114.16H474.5V144.197Z" fill="#D51717"/>
<path opacity="0.54" d="M466.5 147.572H392.6V110.785H466.5V147.572ZM394.6 144.197H464.5V114.16H394.6V144.197Z" fill="#D51717"/>
<path opacity="0.54" d="M546.4 347.365H472.5V189.589H546.4V347.365ZM474.5 343.99H544.4V192.964H474.5V343.99Z" fill="#D51717"/>
<path opacity="0.54" d="M466.5 347.365H392.6V189.589H466.5V347.365ZM394.6 343.99H464.5V192.964H394.6V343.99Z" fill="#D51717"/>
</g>
<path opacity="0.23" d="M393.6 256.243C393.3 256.243 393.1 256.074 392.9 255.737C392.5 255.062 392.6 254.049 393 253.374L433 192.458C433.4 191.783 434 191.951 434.4 192.626C434.8 193.301 434.7 194.314 434.3 194.989L394.3 255.905C394 256.074 393.8 256.243 393.6 256.243Z" fill="#D51717"/>
<path opacity="0.23" d="M393.5 301.635C393.2 301.635 393 301.466 392.8 301.129C392.4 300.454 392.4 299.441 392.8 298.766L458.8 191.445C459.2 190.77 459.8 190.77 460.2 191.445C460.6 192.12 460.6 193.133 460.2 193.808L394.2 301.129C394 301.466 393.8 301.635 393.5 301.635Z" fill="#D51717"/>
<path opacity="0.23" d="M475 256.243C474.7 256.243 474.5 256.074 474.3 255.737C473.9 255.062 474 254.049 474.4 253.374L514.4 192.458C514.8 191.783 515.4 191.951 515.8 192.626C516.2 193.301 516.1 194.314 515.7 194.989L475.7 255.905C475.4 256.074 475.2 256.243 475 256.243Z" fill="#D51717"/>
<path opacity="0.23" d="M474.9 301.635C474.6 301.635 474.4 301.466 474.2 301.129C473.8 300.454 473.8 299.441 474.2 298.766L540.2 191.445C540.6 190.77 541.2 190.77 541.6 191.445C542 192.12 542 193.133 541.6 193.808L475.6 301.129C475.4 301.466 475.1 301.635 474.9 301.635Z" fill="#D51717"/>
<path d="M303.27 1.67986L290.606 0.338984C259.021 -3.08768 230.714 19.8561 227.287 51.441L226.542 58.2944C226.393 58.2944 226.095 58.2944 225.946 58.2944C201.364 58.2944 181.102 78.7054 180.804 103.735C180.506 128.765 200.321 149.027 224.903 148.878C235.481 148.878 245.166 145.153 252.764 138.896L311.762 145.153C330.236 147.09 346.923 133.681 348.859 115.207L354.223 64.9987C357.799 33.4138 334.855 5.10652 303.27 1.67986Z" fill="#763859"/>
<path d="M299.545 52.9309C299.396 52.6329 294.629 57.6984 294.033 58.1453C291.947 60.0822 289.712 61.87 287.328 63.5088C277.644 70.2132 265.725 74.0868 254.254 76.1726C249.486 77.0665 244.569 77.5135 239.802 77.6625L239.206 83.6219L235.183 83.1749C226.393 82.281 218.348 88.6874 217.454 97.4775C216.56 106.268 222.967 114.164 231.757 115.207L235.779 115.654L234.885 123.848C233.247 139.194 238.908 153.645 249.188 163.627L247.102 183.144H220.881C220.881 183.144 220.881 183.293 220.732 183.591C221.03 183.591 221.328 183.591 221.775 183.591L243.08 237.077C256.041 268.364 300.439 268.364 313.401 237.077L334.706 183.591C334.855 183.591 335.004 183.591 335.302 183.591C335.302 183.293 335.302 183.144 335.302 183.144H308.037L309.527 169.587C321.446 161.988 329.789 149.176 331.428 134.128L332.322 125.934L333.812 126.083C342.602 126.977 350.647 120.57 351.541 111.78C352.435 102.99 346.029 95.0938 337.238 94.0509L335.749 93.9019L337.09 81.6851V81.0891C320.254 74.0868 309.378 66.4885 299.545 52.9309Z" fill="#FFAC79"/>
<path opacity="0.55" d="M278.836 167.501C252.615 164.67 233.545 141.577 235.63 115.505L234.736 123.699C232.651 142.918 242.186 160.796 257.68 170.182C260.362 180.611 270.195 188.061 281.369 187.316C290.159 186.72 297.459 181.207 300.737 173.758C316.827 167.352 329.044 152.453 330.981 133.979L331.875 125.785C328.597 151.857 305.058 170.331 278.836 167.501Z" fill="#FF7943"/>
<path d="M229.522 101.649C229.373 101.649 229.224 101.5 229.075 101.351C228.926 101.053 228.926 100.755 229.224 100.606L232.949 97.9245L228.479 91.6671C228.33 91.3692 228.33 91.0712 228.628 90.9222C228.926 90.7732 229.224 90.7732 229.373 91.0712L234.439 98.2225L229.82 101.5C229.671 101.649 229.522 101.649 229.522 101.649Z" fill="#FF755F"/>
<path d="M338.133 114.015C337.984 114.015 337.835 114.015 337.686 113.866L333.812 109.694L340.218 103.735C340.516 103.586 340.814 103.586 340.963 103.735C341.112 104.033 341.112 104.331 340.963 104.48L335.302 109.694L338.431 113.121C338.58 113.419 338.58 113.717 338.431 113.866C338.431 113.866 338.282 114.015 338.133 114.015Z" fill="#FF755F"/>
<path opacity="0.57" d="M282.114 142.918C281.965 142.918 281.816 142.769 281.667 142.62C281.518 142.322 281.518 142.024 281.816 141.875C281.816 141.875 286.881 138.3 291.649 141.577C291.947 141.726 291.947 142.173 291.798 142.322C291.649 142.62 291.202 142.62 291.053 142.471C286.881 139.491 282.561 142.62 282.412 142.62C282.263 142.769 282.263 142.918 282.114 142.918Z" fill="#FF755F"/>
<path d="M261.703 85.1117C263.193 85.5587 265.13 85.1117 266.917 84.6648C268.705 84.2178 270.642 83.9199 272.132 83.6219C273.771 83.3239 275.559 83.1749 277.495 83.0259C279.283 82.8769 281.22 82.728 282.561 81.8341C283.902 81.0891 284.2 79.3013 282.263 77.3645C280.475 75.5767 276.006 73.9378 270.642 74.6828C265.279 75.5767 261.703 78.2584 260.511 80.6422C259.319 83.0259 260.213 84.6648 261.703 85.1117Z" fill="#763859"/>
<path d="M323.234 89.4323C321.744 89.7303 319.956 89.1344 318.168 88.6874C316.381 88.2404 314.593 87.7935 313.103 87.3465C311.464 87.0486 309.676 86.6016 307.888 86.4526C306.101 86.1546 304.164 85.8567 302.972 84.9628C301.78 84.0689 301.631 82.281 303.568 80.6422C305.505 79.0034 309.825 77.6625 315.04 78.8544C320.254 80.0463 323.681 83.0259 324.575 85.2607C325.767 87.6445 324.724 89.1344 323.234 89.4323Z" fill="#763859"/>
<path d="M269.301 107.162C269.152 107.162 269.152 107.162 269.003 107.013C263.789 103.586 259.319 105.821 259.17 105.97C258.872 106.119 258.574 105.97 258.425 105.672C258.276 105.374 258.425 105.076 258.723 104.927C258.872 104.778 263.789 102.245 269.748 106.119C270.046 106.268 270.046 106.566 269.897 106.864C269.599 107.013 269.45 107.162 269.301 107.162Z" fill="#FF7943"/>
<path d="M322.042 112.674C321.893 112.674 321.893 112.674 321.744 112.525C316.53 109.098 312.06 111.333 311.911 111.482C311.613 111.631 311.315 111.482 311.166 111.184C311.017 110.886 311.166 110.588 311.464 110.439C311.613 110.29 316.53 107.758 322.489 111.631C322.787 111.78 322.787 112.078 322.638 112.376C322.34 112.674 322.191 112.674 322.042 112.674Z" fill="#FF7943"/>
<path d="M269.45 116.101C269.45 116.101 278.091 119.974 286.435 121.911C294.927 123.848 289.712 132.787 276.899 130.254C264.236 127.871 262.597 114.313 269.45 116.101Z" fill="white"/>
<path d="M290.755 116.846C288.967 116.846 286.733 116.399 284.2 115.505C283.902 115.356 283.753 115.058 283.902 114.76C284.051 114.462 284.349 114.313 284.647 114.462C292.543 117.591 296.268 114.313 297.46 112.823C297.757 112.525 297.906 112.078 297.757 111.631L295.076 85.1117C295.076 84.8137 295.225 84.5157 295.523 84.5157C295.821 84.5157 296.119 84.6647 296.119 84.9627L298.8 111.482C298.8 112.227 298.651 112.972 298.204 113.568C297.46 114.76 295.076 116.846 290.755 116.846Z" fill="#FF755F"/>
<path d="M276.006 88.5384L274.814 88.3894C270.046 87.9424 265.428 89.5813 262.001 93.008C260.362 94.6468 258.872 96.2856 258.872 97.1795C258.723 99.4143 260.362 101.351 262.597 101.5L278.985 102.99C281.22 103.139 283.157 101.5 283.455 99.4143L283.604 97.3285C283.753 92.859 280.475 88.8364 276.006 88.5384Z" fill="white"/>
<path d="M279.73 94.9448C279.581 94.9448 279.432 94.9448 279.283 94.7958C278.836 94.7958 278.538 94.6468 278.091 94.6468C276.75 94.6468 275.41 94.9448 274.069 95.3917C271.834 96.2856 270.046 97.7755 268.556 99.4143C268.407 99.7123 268.109 99.8613 267.96 100.159C267.662 100.606 267.364 101.202 267.364 101.649C267.364 101.649 270.642 101.947 270.94 101.947C272.43 102.096 273.92 102.245 275.41 102.394C276.452 102.543 277.495 102.543 278.538 102.692C278.687 102.692 278.687 102.692 278.836 102.692C280.922 102.841 282.71 101.202 282.859 98.9674C283.306 97.1796 281.816 95.2427 279.73 94.9448Z" fill="#763859"/>
<path d="M316.828 93.1569L315.636 93.0079C310.868 92.561 306.25 94.1998 302.823 97.4775C301.184 99.1163 299.694 100.755 299.694 101.649C299.545 103.884 301.184 105.821 303.27 105.97L319.509 107.46C321.744 107.609 323.681 105.97 323.83 103.884L323.979 101.798C324.575 97.4775 321.297 93.4549 316.828 93.1569Z" fill="white"/>
<path d="M320.552 99.5633C320.403 99.5633 320.254 99.4143 320.105 99.4143C319.658 99.2653 319.211 99.2653 318.764 99.2653C317.126 99.2653 315.636 99.7123 314.146 100.457C313.103 100.904 312.209 101.649 311.464 102.245C310.719 102.99 309.825 103.735 309.229 104.629C308.931 105.076 308.633 105.672 308.484 106.268C308.484 106.268 311.911 106.566 312.209 106.566C313.699 106.715 315.189 106.864 316.828 107.013C317.87 107.162 318.764 107.162 319.807 107.311H319.956C322.042 107.46 323.83 105.821 323.979 103.735C324.128 101.649 322.638 99.7123 320.552 99.5633Z" fill="#763859"/>
<path d="M228.777 124.146C228.479 124.146 228.181 124.146 227.883 124.146C223.563 123.699 220.285 119.676 220.881 115.356C221.328 111.035 225.35 107.757 229.671 108.353C231.757 108.651 233.694 109.694 235.035 111.333C236.375 112.972 236.971 115.058 236.673 117.293C236.375 119.378 235.332 121.315 233.694 122.656C232.204 123.55 230.565 124.146 228.777 124.146ZM228.628 109.545C225.35 109.545 222.52 112.078 222.222 115.356C221.775 118.931 224.457 122.209 228.032 122.507C229.82 122.656 231.459 122.209 232.8 121.166C234.141 120.123 235.034 118.484 235.183 116.846C235.332 115.058 234.886 113.419 233.843 112.078C232.8 110.737 231.161 109.843 229.522 109.694C229.224 109.545 228.926 109.545 228.628 109.545Z" fill="#F7EEE6"/>
<path d="M336.643 136.363C336.345 136.363 336.047 136.363 335.749 136.363C333.663 136.065 331.726 135.022 330.385 133.383C329.044 131.744 328.448 129.658 328.746 127.424C329.193 123.103 333.216 119.825 337.537 120.421C341.857 120.868 345.135 124.891 344.539 129.211C344.241 131.297 343.198 133.234 341.559 134.575C340.218 135.767 338.431 136.363 336.643 136.363ZM336.643 121.762C333.365 121.762 330.534 124.295 330.236 127.573C330.087 129.36 330.534 130.999 331.577 132.34C332.62 133.681 334.259 134.575 335.898 134.724C337.686 134.873 339.324 134.426 340.665 133.383C342.006 132.34 342.9 130.701 343.049 129.062C343.496 125.487 340.814 122.209 337.239 121.911C337.09 121.762 336.941 121.762 336.643 121.762Z" fill="#F7EEE6"/>
<path d="M281.816 232.31C281.667 232.31 281.518 232.31 281.22 232.31C251.87 231.714 241.739 185.677 241.292 183.74C241.143 183.293 241.441 182.995 241.888 182.846C242.335 182.697 242.633 182.995 242.782 183.442C242.931 183.889 253.062 230.224 281.22 230.82C281.369 230.82 281.518 230.82 281.667 230.82C309.378 230.82 313.997 182.548 313.997 182.101C313.997 181.654 314.444 181.356 314.742 181.356C315.189 181.356 315.487 181.803 315.487 182.101C315.487 182.697 310.719 232.31 281.816 232.31Z" fill="#F7EEE6"/>
<path d="M283.306 240.802C280.177 240.802 277.644 238.567 277.644 235.736C277.644 232.905 280.177 230.671 283.306 230.671C286.434 230.671 288.967 232.905 288.967 235.736C288.967 238.567 286.434 240.802 283.306 240.802ZM283.306 232.161C281.071 232.161 279.134 233.799 279.134 235.736C279.134 237.673 281.071 239.312 283.306 239.312C285.541 239.312 287.477 237.673 287.477 235.736C287.477 233.799 285.541 232.161 283.306 232.161Z" fill="#F7EEE6"/>
<path d="M459.705 273.727C462.833 271.195 462.982 266.576 460.301 263.596C450.915 253.763 441.529 244.079 432.142 234.246C423.352 225.009 414.562 215.772 405.921 206.386C398.174 197.894 389.086 189.998 377.912 186.273C370.462 183.889 362.715 183.591 354.968 183.442C352.882 183.442 335.004 181.654 334.408 183.591L313.103 237.077C300.141 268.513 255.744 268.513 242.782 237.077L221.477 183.591C221.179 183.591 220.881 183.591 220.434 183.591C201.066 183.889 185.72 186.869 171.418 200.724C150.262 221.433 130 243.036 109.291 264.043C107.801 265.533 107.652 268.066 109.142 269.705L162.926 328.703C166.501 332.577 172.759 331.981 175.44 327.362L190.488 301.439C190.488 301.439 190.488 306.504 191.084 313.209H236.971H305.505H367.93L365.397 301.439L390.873 331.087L459.705 273.727Z" fill="white"/>
<path d="M337.239 256.147L430.206 299.502L392.363 336.003L337.239 256.147Z" fill="white"/>
<path d="M341.112 378.315L323.83 384.573C308.484 390.085 292.543 392.767 276.601 392.618C260.66 392.767 244.57 390.085 229.373 384.573C225.499 383.232 221.626 381.742 217.752 380.252C213.581 378.613 210.005 384.573 207.323 387.403C203.747 391.128 200.321 395.151 197.341 399.471C192.425 406.623 188.443 417.708 188.145 426.498C198.31 426.498 216.156 426.498 220.912 426.498C232.539 426.498 268.088 426.42 272.705 426.498C277.322 426.576 294.289 426.498 316.57 426.498C338.852 426.498 331.368 426.498 345.109 426.498C352.508 426.498 349.866 426.498 356.736 426.498C362.021 426.498 366.249 426.498 369.121 422.415C369.121 419.733 368.079 417.052 366.887 414.668C361.523 402.749 353.627 392.32 346.625 381.444C345.135 378.911 343.943 377.272 341.112 378.315Z" fill="#FF8383"/>
<path d="M373.889 288.179C366.887 277.005 354.819 270.003 343.794 263.596C340.367 261.511 337.685 259.425 337.983 255.253C338.877 240.802 339.622 226.499 341.261 212.196C342.006 204.002 344.837 193.573 344.986 184.783C344.986 183.889 344.39 183.144 343.496 182.995C340.665 182.548 337.834 182.25 334.408 182.25H327.406C325.767 182.101 324.277 183.293 324.277 184.932C324.128 193.722 323.979 215.921 323.83 219.05C323.234 233.054 322.787 247.059 322.787 261.213C323.681 261.511 294.033 272.536 278.389 272.685C264.832 272.685 249.486 267.619 236.375 262.405C236.077 262.256 235.034 233.203 235.034 219.05C235.034 218.454 234.587 191.041 234.438 184.038C234.438 183.144 233.694 182.399 232.8 182.548L221.477 182.995C218.646 182.995 216.113 183.144 213.73 183.442C213.581 192.679 216.709 203.108 217.603 212.047C218.795 225.009 219.689 237.971 220.732 250.933C221.477 259.276 217.603 262.554 211.048 266.278C204.641 270.003 198.533 274.323 193.17 279.538C186.316 286.093 177.973 295.479 179.463 306.057C180.208 311.57 184.081 310.229 186.763 313.805C187.508 314.847 187.657 316.039 187.508 317.231C186.465 326.021 189.445 333.769 195.106 340.175C197.043 342.41 198.98 344.347 201.513 345.837C202.705 350.902 204.045 355.968 205.237 361.033C206.131 364.758 207.174 368.482 208.068 372.356C208.664 374.591 208.962 380.252 211.346 380.997C216.56 382.785 216.262 379.358 220.434 377.57C224.307 375.932 230.118 377.421 233.992 378.017C251.572 380.401 269.003 383.381 286.732 383.828C305.505 384.275 324.128 383.232 342.751 381.444C343.496 381.444 344.241 381.295 344.837 380.848C345.433 380.401 345.731 379.507 345.88 378.762C347.966 370.27 350.051 361.778 352.137 353.286C352.435 351.945 352.733 347.028 353.925 346.134C363.013 340.473 368.525 329.746 367.781 319.168C367.632 318.125 367.632 317.082 367.781 316.039C368.228 314.103 369.866 313.507 371.505 313.507C374.336 313.507 377.465 313.954 378.21 310.527C378.954 307.249 378.805 303.525 378.21 300.247C377.912 295.628 376.273 291.755 373.889 288.179Z" fill="#FF8383"/>
<path opacity="0.3" d="M438.698 265.831C429.61 257.637 401.6 268.96 371.803 285.199C372.548 286.093 373.293 287.136 373.889 288.179C376.124 291.755 377.763 295.628 378.657 299.949C379.252 303.227 379.252 306.951 378.657 310.229C377.912 313.656 374.783 313.209 371.952 313.209C370.164 313.209 368.675 313.805 368.228 315.741C367.93 316.784 368.079 317.827 368.228 318.87C369.121 329.448 363.46 340.324 354.372 345.836C353.18 346.73 352.882 351.647 352.584 352.988C350.498 361.48 348.412 369.972 346.327 378.464C346.178 379.209 345.88 380.103 345.284 380.55C344.688 380.997 343.943 381.146 343.198 381.146C327.703 382.636 312.209 383.53 296.714 383.53C299.694 387.106 302.376 390.234 304.313 392.767C323.979 416.158 355.564 426.438 384.914 416.605C410.539 407.665 411.88 387.105 427.971 364.46C446.743 331.832 458.215 295.479 438.698 265.831Z" fill="#3152AF"/>
<path opacity="0.67" d="M345.135 380.699C345.731 380.252 346.029 379.358 346.178 378.613C348.264 370.121 350.349 361.629 352.435 353.137C352.733 351.796 353.031 346.879 354.223 345.985C363.311 340.324 368.824 329.597 368.079 319.019C367.93 317.976 367.93 316.933 368.079 315.89C368.526 313.954 370.164 313.358 371.803 313.358C374.634 313.358 377.763 313.805 378.508 310.378C379.253 307.1 379.104 303.376 378.508 300.098C377.763 295.777 376.124 291.904 373.74 288.328C373.144 287.285 372.399 286.391 371.654 285.348C336.196 304.717 297.906 330.938 285.839 339.728C268.109 350.008 284.349 369.823 296.417 383.977C311.911 383.977 327.406 382.934 342.9 381.593C343.794 381.295 344.539 381.146 345.135 380.699Z" fill="#EA5454"/>
<path d="M220.732 376.081L215.964 381.593L230.863 386.659C246.208 391.873 262.15 394.555 278.091 394.406C294.033 394.555 310.123 392.022 325.32 386.659L342.602 380.699L283.604 383.232L220.732 376.081Z" fill="#FF8383"/>
<path opacity="0.6" d="M212.091 381.444C218.348 383.083 224.754 384.424 230.714 386.659C246.059 391.873 262.001 394.555 277.942 394.406C293.884 394.555 309.974 392.022 325.171 386.659L342.453 380.699C340.963 381.146 338.728 380.848 337.388 380.997C333.067 381.146 328.746 381.444 324.426 381.593C311.613 382.189 298.949 383.083 285.988 382.785C272.728 382.487 259.468 381.295 246.357 379.209C240.547 378.315 234.737 377.123 228.777 377.123C223.116 376.974 217.007 378.166 212.091 381.444Z" fill="#EA5454"/>
<path opacity="0.6" d="M228.628 259.276C228.926 259.425 236.226 262.256 236.226 262.256L235.928 257.786L228.628 259.276Z" fill="#EA5454"/>
<path opacity="0.6" d="M322.787 261.213L330.534 259.127L322.787 256.594V261.213Z" fill="#EA5454"/>
<path opacity="0.6" d="M229.969 282.22C227.138 282.22 224.903 279.985 224.903 277.154C224.903 274.323 227.138 272.089 229.969 272.089C232.8 272.089 235.034 274.323 235.034 277.154C235.034 279.985 232.651 282.22 229.969 282.22ZM229.969 273.578C228.032 273.578 226.393 275.217 226.393 277.154C226.393 279.091 228.032 280.73 229.969 280.73C231.906 280.73 233.545 279.091 233.545 277.154C233.545 275.217 231.906 273.578 229.969 273.578Z" fill="#EA5454"/>
<path opacity="0.6" d="M330.385 282.22C327.555 282.22 325.32 279.985 325.32 277.154C325.32 274.323 327.555 272.089 330.385 272.089C333.216 272.089 335.451 274.323 335.451 277.154C335.451 279.985 333.216 282.22 330.385 282.22ZM330.385 273.578C328.448 273.578 326.81 275.217 326.81 277.154C326.81 279.091 328.448 280.73 330.385 280.73C332.322 280.73 333.961 279.091 333.961 277.154C333.961 275.217 332.471 273.578 330.385 273.578Z" fill="#EA5454"/>
<path d="M300.886 397.981C320.552 421.372 352.137 431.652 381.487 421.819C407.113 412.88 434.526 399.024 450.468 376.527C469.389 343.602 454.788 300.396 435.42 270.748C415.307 253.018 305.058 328.405 282.71 344.496C260.66 357.457 291.5 385.169 300.886 397.981Z" fill="#763859"/>
<path d="M284.796 351.498C282.859 353.137 283.604 356.265 285.988 357.01C296.863 359.99 324.873 362.523 373.74 334.663C417.989 309.335 427.375 289.371 428.865 279.389C429.461 275.813 425.885 272.983 422.458 274.025C402.792 280.581 338.579 304.27 284.796 351.498Z" fill="#EA5454"/>
<path d="M421.117 281.773C416.648 278.495 410.242 282.369 407.411 286.987C404.58 291.606 403.239 297.416 399.217 301.141C395.045 305.014 388.788 305.908 383.424 304.27C381.487 303.674 379.699 302.78 377.614 302.482C371.952 301.737 366.887 306.206 362.566 309.931C355.713 315.741 347.072 320.658 337.984 319.615C335.004 319.168 332.173 318.125 329.044 317.678C318.913 316.337 308.186 323.787 306.25 333.769C305.803 335.705 305.803 337.642 304.611 339.281C302.376 342.41 297.757 342.112 294.033 343.006C291.053 343.9 280.326 352.541 284.796 356.117C285.541 356.712 287.179 357.606 288.222 357.755C297.31 359.245 306.101 359.245 313.997 357.457C339.175 352.094 348.71 347.326 366.44 339.132C377.912 333.769 390.575 324.979 400.706 317.38C405.772 313.507 410.837 309.484 415.307 304.865C420.671 299.353 429.908 288.179 421.117 281.773Z" fill="#FFC5A6"/>
<path opacity="0.58" d="M307.74 344.496C311.464 343.453 316.083 343.751 318.318 340.771C319.509 339.132 319.658 337.195 319.956 335.259C321.595 327.213 328.896 320.658 337.09 319.317C334.408 318.87 331.726 317.976 329.044 317.529C318.913 316.188 308.187 323.638 306.25 333.62C305.803 335.557 305.803 337.493 304.611 339.132C302.376 342.261 297.758 341.963 294.033 342.857C291.053 343.751 280.326 352.392 284.796 355.968C285.541 356.563 286.584 356.563 287.627 356.712C291.202 356.861 294.629 357.01 298.056 357.01C295.225 353.137 304.909 345.241 307.74 344.496Z" fill="#FFAC79"/>
<path opacity="0.58" d="M411.731 303.078C415.754 299.353 417.095 293.692 419.926 288.924C420.82 287.434 422.309 285.944 423.799 284.752C423.203 283.709 422.309 282.667 421.118 281.773C416.648 278.495 410.242 282.369 407.411 286.987C404.58 291.606 403.239 297.416 399.217 301.141C397.131 303.078 394.598 304.27 391.767 304.716C393.108 305.163 394.598 305.759 395.939 306.206C401.302 307.845 407.56 306.951 411.731 303.078Z" fill="#FFAC79"/>
<path d="M328.448 328.107C327.406 329.15 326.214 330.342 326.065 331.832C325.767 333.322 326.959 335.11 328.448 334.961C330.087 334.812 330.683 332.875 332.024 332.13C333.961 331.087 337.239 332.577 338.43 330.789C339.473 329.15 337.686 327.213 336.047 326.468C333.961 325.574 331.428 325.276 329.342 326.319C327.257 327.362 325.916 329.746 326.512 331.981" fill="#763859"/>
<path d="M302.823 346.432C301.78 346.134 300.737 347.326 301.035 348.369C301.333 349.412 302.525 350.008 303.568 350.008C304.611 350.008 305.654 349.561 306.697 348.965C308.186 348.22 309.974 346.432 308.782 345.241C308.484 344.943 308.037 344.794 307.591 344.645C305.654 344.198 303.717 344.347 301.78 344.943C300.737 345.241 299.694 346.73 300.737 347.177" fill="#763859"/>
<path d="M337.835 339.43C338.133 339.877 338.728 340.175 338.877 340.771C339.324 342.112 338.877 343.602 337.835 344.496C335.898 346.134 331.428 344.198 333.812 342.261C333.812 342.261 336.643 338.089 337.835 339.43Z" fill="#763859"/>
<path d="M362.566 315.146C361.374 315.89 360.033 316.933 360.033 318.274C360.033 319.615 361.374 320.658 362.715 320.807C364.056 320.956 365.397 320.36 366.738 319.913C367.93 319.317 369.42 318.572 369.569 317.231C369.866 315.146 367.185 314.252 365.099 314.252C363.013 314.252 360.629 314.997 360.182 317.082" fill="#763859"/>
<path d="M372.399 329.001C370.909 328.554 369.121 328.554 368.079 329.597C367.036 330.64 367.334 333.024 368.824 333.322C369.27 333.471 369.866 333.322 370.313 333.024C372.697 332.13 374.783 330.64 376.422 328.554C375.826 327.213 373.889 327.064 372.548 327.809C371.207 328.554 370.015 329.597 368.675 329.895" fill="#763859"/>
<path d="M394.449 308.888C392.959 309.484 393.257 312.017 394.747 312.613C396.237 313.358 397.876 312.762 399.217 311.868C399.962 311.272 400.706 310.527 400.706 309.484C400.706 308.292 399.366 307.547 398.174 307.547C396.982 307.547 395.939 308.143 394.896 308.739" fill="#763859"/>
<path d="M411.433 291.606C410.093 292.947 411.731 295.777 413.668 295.33C415.605 294.883 415.903 291.904 414.413 290.861C412.774 289.818 411.433 291.606 411.433 291.606Z" fill="#763859"/>
<path d="M462.387 271.046C437.804 285.795 407.411 315.443 399.217 324.383C397.727 325.425 396.386 326.617 395.045 327.809C392.81 329.895 390.426 330.789 387.298 331.534C379.402 333.62 371.803 336.301 364.652 340.324C363.907 340.771 363.162 341.218 362.566 341.814C361.97 342.41 361.672 343.304 361.821 344.198C362.119 345.241 363.162 345.985 364.205 346.432C367.483 347.773 371.058 348.071 374.485 348.22C372.399 350.455 370.015 352.839 367.483 355.372C362.566 361.033 353.18 369.525 361.076 375.634C364.056 377.57 366.291 375.932 368.228 373.846C366.291 377.421 365.397 381.593 370.015 383.679C373.889 386.212 376.72 383.232 378.955 379.656C377.912 382.04 377.614 384.424 380.295 386.063C384.765 389.489 388.639 386.063 391.022 382.189C389.98 386.51 399.366 386.659 401.004 382.338L432.738 355.968C449.276 345.39 489.055 324.532 497.249 310.825C511.105 287.732 455.533 268.215 462.387 271.046ZM381.487 375.485C381.785 374.889 382.083 374.442 382.381 373.995C382.232 374.293 381.934 374.889 381.487 375.485Z" fill="#FFAC79"/>
<path opacity="0.57" d="M373.144 368.482C372.995 362.076 367.185 373.995 366.44 374.74C365.546 375.932 367.781 377.421 368.526 376.081C368.526 376.081 373.144 368.631 373.144 368.482Z" fill="#FF755F"/>
<path opacity="0.57" d="M378.955 382.487C378.955 381.295 386.106 371.909 383.722 371.015C381.785 369.525 377.614 380.699 376.72 381.295C375.975 382.636 378.21 383.828 378.955 382.487Z" fill="#FF755F"/>
<path opacity="0.57" d="M395.641 376.23C396.386 374.889 394.3 373.697 393.555 375.038C393.406 376.23 387.447 382.785 389.682 383.828C391.618 385.169 394.747 376.974 395.641 376.23Z" fill="#FF755F"/>
<path d="M116.293 277.452C112.27 283.114 108.099 289.222 104.225 294.883L102.288 297.714L58.4866 206.386L58.3376 206.088C59.2316 195.361 61.0194 166.607 57.7417 159.902C55.2089 154.986 50.2924 153.645 46.7168 153.347C44.333 153.198 42.0982 153.794 40.1614 155.135L31.8182 160.647V160.498C29.2855 155.582 22.8791 154.39 18.8565 157.966C8.12951 167.501 -7.66296 184.932 4.25588 196.255C12.0031 203.555 16.1747 209.515 18.4095 213.686C18.4095 213.686 19.1544 217.858 20.4953 224.413L21.0913 224.115C26.7527 249.592 38.8205 292.947 40.9063 301.29C45.6738 320.36 52.9742 340.324 67.2768 354.329C79.7916 366.694 98.1168 372.058 115.399 368.78C126.871 366.694 137.598 360.735 145.643 352.392C147.431 350.455 165.011 330.64 164.862 330.491C164.862 330.789 116.293 277.452 116.293 277.452ZM41.0553 173.609C40.3104 173.907 39.5654 174.354 38.8205 174.652L38.6715 174.354L41.0553 173.609Z" fill="#FFAC79"/>
<path d="M53.5701 64.2538C50.1434 59.7842 45.2269 57.1025 39.8634 56.3575V56.2086L38.3735 56.0596V56.2086C32.8611 55.9106 27.4976 57.6984 23.177 61.572C18.7075 65.4457 16.0257 70.9581 15.4298 77.0665C14.8338 83.0259 16.7707 103.288 19.6014 123.401C22.8791 146.196 25.8588 158.711 28.5405 161.094L27.6466 170.48L29.1364 170.629L30.0304 161.392C33.606 160.349 39.1185 148.431 46.4188 125.785C52.2292 107.609 57.5927 87.0486 58.1886 80.7912C58.9336 74.8317 57.1457 69.0213 53.5701 64.2538ZM38.2246 58.2944L29.4344 154.837C26.7527 137.555 18.1115 76.4706 31.5202 61.572C33.308 59.3372 35.5428 58.2944 38.2246 58.2944ZM39.7144 58.2944C42.2472 58.5923 44.333 59.9332 45.8228 62.168C55.9538 77.8115 37.7776 133.681 31.0733 152.751L39.7144 58.2944ZM17.0686 77.2155C17.5156 71.5541 20.1973 66.4886 24.2199 62.7639C26.7527 60.5291 29.8814 58.8903 33.0101 58.2944C31.9672 58.8903 31.0733 59.6352 30.3283 60.5291C15.2808 77.3645 26.4547 146.792 28.3915 158.264C23.475 146.941 15.8767 89.5813 17.0686 77.2155ZM56.8478 80.7912C56.2518 86.8996 50.8883 107.46 45.0779 125.487C37.4796 148.878 32.5631 158.413 30.3283 160.051L30.4773 158.86C34.053 149.027 58.9336 80.0462 47.0147 61.572C46.5678 60.9761 46.1208 60.3801 45.6739 59.9332C48.2066 61.2741 50.5904 63.0619 52.3782 65.4457C55.8049 69.6172 57.2947 75.1297 56.8478 80.7912Z" fill="#763859"/>
<path d="M25.4118 242.143L19.4524 241.547C18.2605 241.398 17.3666 240.355 17.5156 239.163L23.475 172.417C23.624 171.225 24.6669 170.331 25.8588 170.48L31.8182 171.076C33.0101 171.225 33.904 172.268 33.755 173.46L27.7956 240.206C27.6466 241.398 26.6037 242.292 25.4118 242.143Z" fill="#3152AF"/>
<path d="M31.2222 213.835C31.2222 213.835 24.3689 181.058 40.6083 173.609L29.8814 177.781C24.5179 179.867 18.5585 176.887 17.0686 171.225L38.6715 155.284C40.6083 153.943 42.8431 153.198 45.2269 153.198C48.8025 153.198 53.7191 154.241 56.5498 159.009" fill="#FFAC79"/>
<path d="M4.25586 196.404L13.195 204.747C14.8338 206.386 17.6646 205.939 18.8564 204.002C20.7933 200.874 20.4953 197 18.1115 194.169L7.9805 182.995L19.4524 194.169C21.5382 196.255 24.8159 195.957 26.7527 193.722C28.2425 191.785 28.3915 189.253 27.0507 187.167L16.9196 171.97" fill="#FFAC79"/>
<path d="M31.2222 213.835C31.2222 213.835 24.3689 181.058 40.6083 173.609L29.8814 177.781C24.5179 179.867 18.5585 176.887 17.0686 171.225L38.6715 155.284C40.6083 153.943 42.8431 153.198 45.2269 153.198C48.8025 153.198 53.7191 154.241 56.5498 159.009" fill="#FFAC79"/>
<path d="M31.2223 214.58C30.9243 214.58 30.6263 214.282 30.4773 213.984C30.1794 212.792 25.1139 187.465 35.5429 176.291L30.1794 178.377C27.4976 179.42 24.3689 179.271 21.6872 177.93C19.0055 176.589 17.0686 174.205 16.3237 171.374L16.1747 170.927L38.0756 154.688C40.1614 153.198 42.5452 152.453 45.0779 152.453C48.9516 152.453 54.1661 153.645 56.9968 158.711C57.1458 159.009 57.1458 159.455 56.6988 159.753C56.4008 159.902 55.9539 159.902 55.6559 159.456C53.1232 154.986 48.3556 154.092 44.929 153.943C42.8432 153.943 40.6084 154.539 38.8205 155.88L17.6646 171.523C18.4095 173.758 19.8994 175.546 22.1342 176.589C24.3689 177.781 27.0507 177.93 29.2855 176.887L40.0124 172.715L40.6084 174.056C24.9649 181.207 31.5203 213.239 31.5203 213.537C31.6692 213.984 31.3713 214.282 30.9243 214.431C31.3713 214.58 31.2223 214.58 31.2223 214.58Z" fill="#FF755F"/>
<path d="M4.25586 196.404L13.195 204.747C14.8338 206.386 17.6646 205.939 18.8564 204.002C20.7933 200.873 20.4953 197 18.1115 194.169L7.9805 182.995L19.4524 194.169C21.5382 196.255 24.8159 195.957 26.7527 193.722C28.2425 191.785 28.3915 189.253 27.0507 187.167L16.9196 171.97" fill="#FFAC79"/>
<path d="M15.7278 206.386C14.5359 206.386 13.493 205.939 12.7481 205.194L3.80893 196.851C3.51096 196.553 3.51096 196.106 3.80893 195.808C4.1069 195.51 4.55385 195.51 4.85182 195.808L13.791 204.151C14.3869 204.747 15.2808 205.045 16.1747 204.896C17.0686 204.747 17.8136 204.3 18.2605 203.555C20.0483 200.724 19.7504 197.149 17.5156 194.616L7.38457 183.442L8.42749 182.399L19.8994 193.573C20.7933 194.467 21.8362 194.765 23.0281 194.765C24.2199 194.765 25.2628 194.169 26.0078 193.275C27.3486 191.636 27.4976 189.402 26.3058 187.614L16.1747 172.417C15.8768 172.119 16.0257 171.672 16.3237 171.374C16.6217 171.076 17.0687 171.225 17.3666 171.523L27.4976 186.72C28.9875 189.104 28.8385 192.083 27.0507 194.169C26.0078 195.361 24.5179 196.106 23.0281 196.255C21.8362 196.255 20.7933 196.106 19.8994 195.51C21.2402 198.192 21.2402 201.618 19.4524 204.3C18.7075 205.343 17.5156 206.088 16.1747 206.237C16.0257 206.386 15.8768 206.386 15.7278 206.386Z" fill="#FF755F"/>
<path opacity="0.55" d="M102.288 297.714L114.207 313.209L110.185 286.391L102.288 297.714Z" fill="#FF7943"/>
</svg>
