<svg width="133" height="116" viewBox="0 0 133 116" fill="none" xmlns="http://www.w3.org/2000/svg">
<path opacity="0.25" d="M104.352 102.554L83.643 70.1789C82.7983 68.7877 81.2509 68.0413 79.6777 68.1428L2.85379 72.714C2.50421 72.7365 2.46009 73.2331 2.74713 73.3556L101.731 106.073C103.731 106.755 105.534 104.346 104.352 102.554Z" fill="url(#paint0_linear)"/>
<path d="M121.558 65.4469L21.0296 33.9745C19.4613 33.4771 17.8232 34.3221 17.1358 35.9157L2.9175 68.8743C2.29252 70.3231 2.93983 71.9714 4.33349 72.4801L99.9939 104.02C102.454 104.812 105.153 103.476 106.247 100.941L121.558 65.4469Z" fill="#AB6450"/>
<path d="M105.157 96.9736L105.492 95.9961L5.37723 62.8895L4.93891 63.909L105.157 96.9736Z" fill="#8F2912"/>
<path d="M109.285 87.1522L9.17092 54.0456L8.73261 55.0652L108.919 88.2025L109.285 87.1522Z" fill="#8F2912"/>
<path d="M12.9333 45.2745L12.5263 46.2212L112.713 79.3587L113.079 78.3084L12.9333 45.2745Z" fill="#8F2912"/>
<path d="M104.725 97.9802L105.06 97.0028L4.94547 63.8961L4.50715 64.9156L104.725 97.9802Z" fill="#FFBF4F"/>
<path d="M108.854 88.1588L8.73911 55.0522L8.3008 56.0717L108.487 89.2091L108.854 88.1588Z" fill="#FFBF4F"/>
<path d="M12.5015 46.2812L12.0945 47.2279L112.281 80.3653L112.647 79.315L12.5015 46.2812Z" fill="#FFBF4F"/>
<path opacity="0.1" d="M18.3488 34.3928C17.7713 34.7472 17.3777 35.2659 17.0964 35.9183L15.0018 40.7752C16.3427 41.6049 19.1588 43.1498 21.3734 43.923C24.3771 45.033 27.9434 44.8381 31.1531 45.8643C34.2598 46.9324 37.0759 48.4773 39.9765 49.6291C42.8772 50.781 49.8868 52.0553 53.0652 53.154C56.2749 54.1802 62.9647 57.3779 64.9825 58.4106C67.0003 59.4432 73.6549 59.9652 76.4028 60.8802C79.1508 61.7953 85.3789 64.8819 87.2974 65.3571C89.1845 65.9048 91.8864 65.9419 94.7062 66.8876C97.5259 67.8332 99.0195 68.8997 100.669 69.6037C102.319 70.3076 105.842 70.6089 108.087 71.3097L110.087 71.9911C111.584 72.4583 112.2 74.1804 111.544 75.7027C109.394 79.5061 108.73 82.227 107.792 84.4017C106.855 86.5764 105.249 88.7238 104.352 91.0016C103.454 93.2795 102.603 96.4353 101.29 99.4799L99.4455 103.757L100.051 103.929C100.943 104.224 101.785 104.24 102.65 104.008C103.67 103.414 104.57 102.51 105.07 101.35L117.668 72.1362L120.326 65.9744L19.7559 34.4782C19.3254 34.2945 18.8012 34.3283 18.3488 34.3928Z" fill="black"/>
<path d="M20.991 33.9821C19.4221 33.4843 17.7834 34.33 17.0956 35.9247L15.4388 39.7666C15.4388 39.7666 19.6049 42.3166 22.6085 43.4265C25.6121 44.5364 29.1784 44.3416 32.388 45.3677C35.4946 46.4357 38.3106 47.9806 41.2112 49.1324C44.1118 50.2841 51.1213 51.5584 54.2996 52.657C57.5092 53.6832 64.1988 56.8808 66.2165 57.9134C68.2343 58.9459 74.8887 59.4679 77.6366 60.3829C80.3846 61.2979 86.6125 64.3844 88.5309 64.8596C90.418 65.4073 93.1199 65.4444 95.9395 66.39C98.7592 67.3356 100.253 68.402 101.903 69.1059C103.552 69.8099 107.075 70.1111 109.32 70.8119L111.32 71.4933C112.817 71.9605 113.433 73.6825 112.777 75.2047C110.627 79.0079 109.963 81.7286 109.025 83.9033C108.088 86.0779 106.482 88.2252 105.585 90.5029C104.687 92.7806 103.836 95.9363 102.523 98.9808L100.335 104.055C102.643 104.611 105.168 103.285 106.2 100.893L118.829 71.6077L121.487 65.4463L20.991 33.9821Z" fill="#6B3525"/>
<path d="M20.991 33.9821C19.4221 33.4843 17.7834 34.33 17.0956 35.9247L15.4388 39.7666C15.4388 39.7666 19.6049 42.3166 22.6085 43.4265C25.6121 44.5364 29.1784 44.3416 32.388 45.3677C35.4946 46.4357 38.3106 47.9806 41.2112 49.1324C44.1118 50.2841 51.1213 51.5584 54.2996 52.657C57.5092 53.6832 64.1988 56.8808 66.2165 57.9134C68.2343 58.9459 74.8887 59.4679 77.6366 60.3829C80.3846 61.2979 86.6125 64.3844 88.5309 64.8596C90.418 65.4073 93.1199 65.4444 95.9395 66.39C98.7592 67.3356 100.253 68.402 101.903 69.1059C103.552 69.8099 107.075 70.1111 109.32 70.8119L111.32 71.4933C112.817 71.9605 113.433 73.6825 112.777 75.2047C110.627 79.0079 109.963 81.7286 109.025 83.9033C108.088 86.0779 106.482 88.2252 105.585 90.5029C104.687 92.7806 103.836 95.9363 102.523 98.9808L100.335 104.055C102.643 104.611 105.168 103.285 106.2 100.893L118.829 71.6077L121.487 65.4463L20.991 33.9821Z" fill="#472319"/>
<path d="M121.564 63.0048L100.857 30.6402C100.013 29.2494 98.4656 28.5032 96.8927 28.6047L20.6039 33.1406C19.134 33.2002 17.7506 34.2413 17.1253 35.6918L16.8751 36.2719C18.1259 33.371 20.7309 34.2252 20.7309 34.2252L118.911 66.5954C120.942 67.2047 122.745 64.7969 121.564 63.0048Z" fill="#6B3525"/>
<path d="M20.6037 33.109C19.1339 33.1686 17.7506 34.2096 17.1253 35.6598L16.8751 36.24C18.1258 33.3394 20.7307 34.1935 20.7307 34.1935L108.661 63.1326L108.836 63.1214L89.8266 28.9941L20.6037 33.109Z" fill="#6B3525"/>
<path opacity="0.23" d="M85.1118 29.3234L83.5387 29.4249C83.5074 29.4975 83.4044 29.5394 83.3731 29.6119C82.6979 30.7839 84.0561 33.9403 87.4955 41.3348C90.0314 46.8836 93.9382 55.1647 92.7884 56.6494C92.5915 56.9089 92.1297 56.7977 91.8114 56.7477C87.7893 55.6322 83.9506 47.9813 80.5075 41.1865C77.7656 35.7216 75.5316 31.2465 73.3291 30.0487L71.2316 30.1841C71.2004 30.2566 71.2004 30.2566 71.1691 30.3292C70.3284 31.6881 71.7141 35.3717 74.0219 41.2525C75.5199 45.0698 77.5442 50.2284 76.8194 51.1215C75.1745 51.1924 71.9468 44.4895 69.6225 39.6323C67.1769 34.4657 65.6439 31.3205 64.3118 30.666L63.2631 30.7337C63.2318 30.8063 63.16 30.7756 63.1288 30.8482C62.2291 31.7525 62.2331 34.5027 62.2886 38.9068C62.3423 41.9359 62.4512 46.0192 61.7484 46.664C61.7484 46.664 61.7171 46.7366 61.6453 46.7059C60.4751 46.4641 59.0802 42.6048 58.0404 39.4984C56.5239 35.3296 55.2504 31.7799 53.5153 31.4687C53.1253 31.3881 52.7444 31.4832 52.4445 31.7847C51.5762 32.6165 51.512 34.7363 51.4975 37.1351C51.4737 39.3581 51.4372 42.0051 50.6001 42.7644C50.4658 42.8788 50.2597 42.9626 49.8384 42.9546C48.0316 42.6128 47.6468 39.9577 47.262 37.3027C46.8772 34.6476 46.5017 32.1683 44.6011 32.0441C44.0362 31.9748 43.5523 32.1118 43.1494 32.4552C42.3123 33.2145 42.18 34.704 42.0476 36.1935C41.9686 37.3623 41.8271 38.6761 41.3524 38.9888C41.3211 39.0614 41.1151 39.1452 40.725 39.0646C39.093 38.7115 38.4765 36.9882 37.9409 35.4713C37.5268 34.2639 37.1128 33.0564 36.0861 32.8759C34.9159 32.634 33.5857 33.3546 32.4616 33.9914C31.6778 34.4298 30.8223 34.8377 30.401 34.8296L30.2815 35.8952C31.0211 35.9532 31.9079 35.4728 32.8977 34.9505C33.8875 34.4282 35.0834 33.8221 35.8635 33.9833C36.3254 34.0946 36.6898 35.0231 37.0229 36.0242C37.5584 37.5412 38.1436 39.337 39.7941 40.0415C40.0094 40.1334 40.1529 40.1946 40.3994 40.214C41.0048 40.3865 41.4887 40.2495 41.8916 39.9061C42.7692 39.25 42.8702 37.833 43.0026 36.3435C43.0816 35.1747 43.2544 33.7884 43.7916 33.3305C43.9259 33.2161 44.0602 33.1016 44.4503 33.1822C45.683 33.279 45.9684 35.3763 46.263 37.6493C46.5888 39.8497 46.9644 42.3291 48.3242 43.5107L50.2525 44.162C50.602 44.1394 50.9111 44.0137 51.1797 43.7848C52.3885 42.7547 52.425 40.1077 52.4524 37.285C52.4633 35.4859 52.5183 33.1904 52.9837 32.7019C52.9837 32.7019 53.0867 32.66 53.2615 32.6487C54.463 32.818 55.9702 36.8111 57.0505 40.0207C58.3333 43.7462 59.5166 46.9139 61.0328 47.7328L61.3915 47.886C61.7099 47.9359 62.0594 47.9134 62.3593 47.6119C63.384 46.4174 63.4739 43.4496 63.3282 38.6634C63.2617 36.0583 63.1748 31.7267 63.8243 31.4027C64.7075 31.522 67.0317 36.3792 68.7983 39.9676C72.269 47.2896 74.7275 52.0323 76.8655 52.0001C77.2868 52.0081 77.6272 51.8099 77.7835 51.4472C78.6242 50.0882 77.279 46.5078 74.9712 40.627C73.4732 36.8097 71.4489 31.6511 72.1332 30.6548C74.1589 30.4888 76.9818 36.16 79.652 41.5943C82.7086 47.7089 86.2234 54.5343 89.9605 56.9025L92.4223 57.6956C92.8749 57.6311 93.2871 57.4635 93.5869 57.1621C95.0679 55.3034 92.4823 49.4758 88.4448 40.7094C86.5475 36.6357 83.9804 31.1595 84.2029 30.052C88.2323 29.9682 99.6487 49.0132 106.629 62.3852L107.593 62.7109L107.83 62.5545C106.154 59.3481 91.6951 31.7899 85.1118 29.3234Z" fill="black"/>
<path d="M40.38 39.8676C38.7295 39.1631 38.0726 37.3366 37.6088 35.8503C37.2757 34.8492 36.9831 33.9513 36.4495 33.8094C35.6694 33.6482 34.4735 34.2544 33.4837 34.7767C32.4938 35.299 31.607 35.7794 30.8674 35.7214L30.9869 34.6558C31.48 34.6945 32.2638 34.256 33.0475 33.8175C34.2434 33.2113 35.5736 32.4907 36.6721 32.7019C37.6988 32.8824 38.1128 34.0899 38.5269 35.2973C39.0624 36.8143 39.6789 38.5376 41.3109 38.8907C41.7727 39.0019 41.907 38.8874 41.9383 38.8149C42.4443 38.4296 42.5546 37.1883 42.6336 36.0195C42.766 34.53 42.8983 33.0404 43.7354 32.2811C44.1384 31.9377 44.6222 31.8007 45.1871 31.87C47.1282 32.0973 47.432 34.546 47.848 37.1286C48.1922 39.6805 48.6487 42.3663 50.4242 42.7806C50.886 42.8918 51.0516 42.7048 51.1859 42.5903C51.9917 41.9036 52.0596 39.184 52.0834 36.9609C52.1292 34.4896 52.1217 32.339 53.0306 31.6104C53.3305 31.3089 53.7113 31.2138 54.1014 31.2944C55.9395 31.5636 57.1817 35.186 58.6263 39.3242C59.7691 42.3888 61.0922 46.2175 62.2311 46.5318C62.3029 46.5624 62.3029 46.5624 62.3342 46.4899C63.037 45.845 62.9281 41.7616 62.8746 38.7325C62.7473 34.2976 62.7434 31.5474 63.7149 30.6737C63.9835 30.4447 64.1895 30.3609 64.5391 30.3383C65.8436 30.4657 67.4887 33.7447 70.2085 39.4579C72.5326 44.3151 75.7603 51.0181 77.4051 50.9472C78.0582 50.0235 76.034 44.8648 74.6078 41.078C72.3002 35.1971 70.9145 31.5135 71.7552 30.1545C71.9833 29.8224 72.3237 29.6241 72.6733 29.6015C75.2951 29.4322 77.8437 34.5571 81.1652 41.0425C84.5364 47.8068 88.4467 55.4884 92.4688 56.6039C92.7871 56.6539 93.2489 56.7651 93.4458 56.5055C94.5643 55.0933 90.6889 46.7395 88.1532 41.1907C84.7139 33.7961 83.3558 30.6396 84.031 29.4676C84.2278 29.2081 84.4652 29.0517 84.8148 29.0291C90.8294 28.676 106.699 59.0703 108.528 62.5137L107.61 63.0666C100.711 49.9007 88.9399 30.1028 84.8075 30.2285C84.5132 31.3054 87.152 36.8123 89.0492 40.886C93.0865 49.6526 95.672 55.4802 94.191 57.339C93.7973 57.8581 93.0356 58.0483 92.1432 57.7533C87.731 56.5572 83.7398 48.6693 80.2876 41.6986C77.5458 36.2336 74.6917 30.6349 72.769 30.759C72.0846 31.7553 74.1089 36.914 75.6068 40.7314C77.9145 46.6123 79.2284 50.2653 78.419 51.5517C78.1908 51.8838 77.8505 52.0821 77.5009 52.1047C75.3629 52.1369 72.9045 47.3942 69.4339 40.0721C67.7391 36.5142 65.3745 31.5538 64.4601 31.5071C63.8824 31.8618 63.8974 36.1628 63.9638 38.768C64.0377 43.5236 64.0195 46.5221 63.0481 47.3959C62.7795 47.6248 62.3986 47.7199 62.0803 47.6699C60.4483 47.3169 59.2153 43.8703 57.7799 39.9078C56.6279 36.6675 55.1926 32.705 53.9911 32.5357C53.8163 32.547 53.8163 32.547 53.7133 32.5889C53.176 33.0467 53.1928 35.373 53.1818 37.1721C53.1544 39.9949 53.1491 42.5694 51.9091 43.672C51.4749 44.088 50.9192 44.1944 50.2826 44.0944C47.7987 43.5496 47.3551 40.4398 46.9299 37.6816C46.6041 35.4811 46.247 33.3531 45.1173 33.2145C44.718 32.9582 44.4807 33.1145 44.4494 33.1871C43.9122 33.6449 43.8423 34.9894 43.6603 36.2001C43.5279 37.6896 43.4268 39.1067 42.5492 39.7628C42.1463 40.1062 41.6219 40.14 41.0571 40.0707C40.8418 39.9788 40.5953 39.9595 40.38 39.8676Z" fill="#FFBF4F"/>
<path d="M105.266 44.4222C104.954 45.1451 103.988 45.4182 103.129 45.0519C102.27 44.6856 101.803 43.8021 102.115 43.0792C102.427 42.3563 103.393 42.0832 104.252 42.4495C105.143 42.7434 105.578 43.6993 105.266 44.4222Z" fill="#472319"/>
<path d="M106.389 47.9715C106.295 48.1883 105.987 48.3136 105.7 48.1916C105.414 48.0695 105.293 47.7611 105.386 47.5442C105.48 47.3274 105.789 47.2021 106.075 47.3242C106.361 47.4463 106.482 47.7547 106.389 47.9715Z" fill="#472319"/>
<path d="M108.904 52.6262C108.779 52.915 108.471 53.0402 108.257 52.9487C108.042 52.8572 107.921 52.5492 108.046 52.2603C108.17 51.9715 108.479 51.8464 108.693 51.9378C108.908 52.0293 109.029 52.3374 108.904 52.6262Z" fill="#472319"/>
<path d="M116.337 60.4953C116.15 60.9293 115.493 61.0771 114.92 60.8328C114.347 60.5885 114.001 60.0132 114.189 59.5792C114.376 59.1453 115.033 58.9975 115.606 59.2418C116.179 59.4861 116.525 60.0614 116.337 60.4953Z" fill="#472319"/>
<path d="M98.7075 37.6954C98.5827 37.9846 98.2026 38.0794 97.8445 37.9267C97.4864 37.7741 97.2936 37.435 97.4184 37.1458C97.5433 36.8566 97.9234 36.7618 98.2814 36.9144C98.6395 37.0671 98.8323 37.4061 98.7075 37.6954Z" fill="#472319"/>
<path d="M99.6622 33.6766C99.4437 34.1829 98.7145 34.3002 98.0698 34.0253C97.4251 33.7505 97.0081 33.1445 97.2266 32.6382C97.4451 32.1319 98.1743 32.0146 98.8191 32.2894C99.5354 32.5948 99.8808 33.1703 99.6622 33.6766Z" fill="#472319"/>
<path d="M96.8336 50.002C96.7088 50.291 96.3694 50.4884 96.0116 50.3359C95.7254 50.2139 95.5639 49.803 95.6886 49.514C95.8134 49.2251 96.1528 49.0276 96.5106 49.1801C96.828 49.2299 96.9895 49.6408 96.8336 50.002Z" fill="#472319"/>
<path d="M80.6385 33.7746C80.5447 33.9921 79.9488 33.9953 79.3749 33.7505C78.801 33.5056 78.3926 33.0739 78.4864 32.8564C78.5802 32.6389 79.1761 32.6357 79.75 32.8806C80.3956 33.1561 80.7323 33.5572 80.6385 33.7746Z" fill="#472319"/>
<path d="M82.2558 51.842C82.731 52.0447 83.2001 52.0144 83.3036 51.7744C83.4072 51.5344 83.1059 51.1755 82.6307 50.9728C82.1556 50.7702 81.6864 50.8004 81.5829 51.0404C81.4793 51.2804 81.7806 51.6393 82.2558 51.842Z" fill="#472319"/>
<path d="M69.139 45.698C69.0452 45.9154 68.4493 45.9186 67.8754 45.6738C67.2297 45.3983 66.8931 44.9972 66.9869 44.7797C67.0807 44.5622 67.6766 44.559 68.2505 44.8039C68.8244 45.0487 69.2328 45.4805 69.139 45.698Z" fill="#472319"/>
<path d="M61.1706 35.3001C61.0458 35.5891 60.7376 35.7143 60.4514 35.5923C60.1651 35.4703 60.044 35.1621 60.1687 34.8731C60.2935 34.5841 60.6017 34.4589 60.8879 34.5809C61.1742 34.7029 61.2953 35.0112 61.1706 35.3001Z" fill="#472319"/>
<path d="M56.6476 43.0644C56.5227 43.3538 56.0709 43.4181 55.7127 43.2654C55.2828 43.0821 55.0899 42.7429 55.2148 42.4536C55.3397 42.1643 55.7916 42.1 56.1498 42.2527C56.5796 42.436 56.7725 42.7751 56.6476 43.0644Z" fill="#472319"/>
<path d="M87.8553 48.1087C87.6995 48.4698 87.2886 48.6367 87.0025 48.5147C86.6448 48.3622 86.5549 47.9819 86.7108 47.6208C86.8667 47.2598 87.2775 47.0929 87.5636 47.2148C87.8497 47.3368 88.0112 47.7476 87.8553 48.1087Z" fill="#472319"/>
<path d="M85.1961 39.8155C85.0088 40.2495 84.3512 40.3974 83.7064 40.1225C83.0616 39.8476 82.7162 39.2721 82.9036 38.8381C83.0909 38.4041 83.7485 38.2562 84.3932 38.5311C85.038 38.806 85.3834 39.3815 85.1961 39.8155Z" fill="#472319"/>
<path d="M50.5788 35.1832C50.454 35.4724 50.0739 35.5672 49.7158 35.4145C49.3578 35.2619 49.1649 34.9229 49.2898 34.6337C49.4146 34.3444 49.7947 34.2496 50.1528 34.4023C50.5108 34.5549 50.7037 34.894 50.5788 35.1832Z" fill="#472319"/>
<defs>
<linearGradient id="paint0_linear" x1="43.5683" y1="112.043" x2="66.3329" y2="58.7122" gradientUnits="userSpaceOnUse">
<stop stop-color="white"/>
<stop offset="0.0869528" stop-color="#F8F8F8"/>
<stop offset="0.2169" stop-color="#E3E3E3"/>
<stop offset="0.3737" stop-color="#C2C2C2"/>
<stop offset="0.5514" stop-color="#949494"/>
<stop offset="0.7467" stop-color="#585858"/>
<stop offset="0.9539" stop-color="#111111"/>
<stop offset="1"/>
</linearGradient>
</defs>
</svg>
