<svg width="325" height="201" viewBox="0 0 325 201" fill="none" xmlns="http://www.w3.org/2000/svg">
<path d="M159.577 117.182C159.769 120.362 161.224 123.166 163.5 125.199L163.453 125.269L164.103 125.806L164.15 125.736C166.637 127.605 169.713 128.444 172.959 127.974C176.275 127.55 179.272 125.794 181.48 123.103C183.642 120.482 189.135 110.329 194.163 99.9667C199.829 88.2004 202.387 81.3705 201.884 79.4068L205.267 75.2652L204.617 74.7279L201.281 78.7993C199.277 78.1697 192.931 82.0565 182.36 90.4363C173.899 97.1776 164.893 105.182 162.638 107.943C160.407 110.517 159.408 113.815 159.577 117.182ZM164.879 124.8L199.489 82.0744C195.286 91.0569 180.037 122.543 169.053 125.358C167.51 125.85 166.134 125.641 164.879 124.8ZM164.181 124.333C163.09 123.399 162.537 122.113 162.545 120.593C162.743 110.047 188.9 89.4254 198.063 82.5433L164.181 124.333ZM180.76 122.519C178.763 125.046 175.907 126.591 172.847 127.085C170.956 127.344 168.973 127.135 167.32 126.435C167.997 126.481 168.65 126.41 169.282 126.223C181.644 123.009 198.343 86.7987 201.06 80.787C199.785 87.6626 185.224 117.067 180.76 122.519ZM163.266 108.363C165.474 105.673 174.48 97.6682 182.894 90.9971C193.84 82.3597 199.154 79.409 200.718 79.3376L200.271 79.8524C195.491 83.3638 162.054 108.061 161.799 120.5C161.82 120.921 161.841 121.342 161.909 121.693C161.147 120.267 160.595 118.677 160.511 116.994C160.225 113.954 161.268 110.89 163.266 108.363Z" fill="#763859"/>
<path d="M228.884 42.2804L231.484 44.4286C231.994 44.8722 232.083 45.6435 231.637 46.1581L207.784 75.7219C207.338 76.2365 206.568 76.3306 206.058 75.887L203.458 73.7388C202.948 73.2951 202.859 72.5239 203.304 72.0093L227.157 42.4454C227.603 41.9308 228.373 41.8367 228.884 42.2804Z" fill="#3152AF"/>
<path d="M313.354 157.658C313.251 157.402 313.2 157.196 313.097 156.94H0C1.33451 177.368 7.44248 184.657 15.8089 196H309.864C315.51 183.681 319.924 173.827 313.354 157.658Z" fill="#FFB1A8"/>
<g opacity="0.64">
<path opacity="0.5" d="M21.7628 173.519C15.8602 173.519 11.7027 173.211 11.6 173.159C11.3947 173.159 11.2407 173.005 11.2407 172.851C11.2407 172.697 11.446 172.595 11.7027 172.595C12.0106 172.595 42.9097 175.058 56.3062 166.435C60.4124 163.818 62.4655 160.379 62.4655 156.221C62.4655 156.067 62.6195 155.913 62.8761 155.913C63.0814 155.913 63.2867 156.067 63.2867 156.221C63.2867 160.533 61.131 164.126 56.8708 166.897C48.0938 172.492 32.1823 173.519 21.7628 173.519Z" fill="#FFEDD8"/>
<path opacity="0.5" d="M141.766 194.563C141.561 194.563 141.356 194.409 141.356 194.255C141.356 191.021 143.05 188.25 146.386 186.043C159.218 177.625 191.605 179.781 192.991 179.883C193.196 179.883 193.35 180.037 193.35 180.191C193.35 180.345 193.145 180.448 192.888 180.448C192.58 180.448 159.474 178.241 146.899 186.453C143.717 188.558 142.126 191.175 142.126 194.204C142.126 194.409 141.972 194.563 141.766 194.563Z" fill="#FFEDD8"/>
<path opacity="0.5" d="M64.5186 184.297H13.7044C13.4991 184.297 13.2938 184.143 13.2938 183.989C13.2938 183.835 13.4478 183.681 13.7044 183.681H64.5186C68.5735 183.681 71.8584 181.32 71.8584 178.343C71.8584 175.264 75.3487 172.697 79.6089 172.697H146.694C146.899 172.697 147.104 172.851 147.104 173.005C147.104 173.159 146.95 173.313 146.694 173.313H79.6602C75.8106 173.313 72.6797 175.572 72.6797 178.343C72.6797 181.628 69.0354 184.297 64.5186 184.297Z" fill="#FFEDD8"/>
<path opacity="0.5" d="M258.639 189.943H225.789C225.584 189.943 225.379 189.789 225.379 189.635C225.379 189.481 225.533 189.327 225.789 189.327H258.639C261.154 189.327 263.258 186.966 263.258 183.989C263.258 180.91 265.568 178.343 268.442 178.343H311.814C312.019 178.343 312.225 178.497 312.225 178.651C312.225 178.805 312.071 178.959 311.814 178.959H268.442C266.03 178.959 264.08 181.218 264.08 183.989C264.08 187.274 261.616 189.943 258.639 189.943Z" fill="#FFEDD8"/>
<path opacity="0.5" d="M254.481 170.849H223.428C212.444 170.849 203.462 164.382 203.462 156.375C203.462 156.221 203.616 156.067 203.873 156.067C204.078 156.067 204.283 156.221 204.283 156.375C204.283 164.023 212.855 170.234 223.428 170.234H254.481C261.975 170.234 268.083 165.819 268.083 160.379V160.071H304.628C304.834 160.071 305.039 160.225 305.039 160.379C305.039 160.533 304.885 160.687 304.628 160.687H268.904C268.699 166.281 262.334 170.849 254.481 170.849Z" fill="#FFEDD8"/>
</g>
<path d="M25.0479 120.856H41.5753L33.6709 112.798" fill="#556CC5"/>
<path d="M42.1912 121.113H25.0992C24.9452 121.113 24.8425 121.011 24.8425 120.857C24.8425 120.703 24.9452 120.6 25.0992 120.6H41.0107L33.5169 113.004C33.4142 112.901 33.4142 112.747 33.5169 112.644C33.6195 112.542 33.7735 112.542 33.8762 112.644L42.1912 121.113Z" fill="#FCEEE5"/>
<path d="M29.3593 121.011C29.308 121.011 29.2053 121.011 29.154 120.959C29.0514 120.857 29.0514 120.703 29.154 120.6L35.3133 114.543C35.416 114.441 35.5699 114.441 35.6726 114.543C35.7753 114.646 35.7753 114.8 35.6726 114.903L29.5133 120.959C29.5133 121.011 29.4107 121.011 29.3593 121.011Z" fill="#3152AF"/>
<path d="M27.5115 121.267C27.4602 121.267 27.3575 121.267 27.3575 121.216C27.2549 121.113 27.2549 120.959 27.3575 120.857L34.2354 113.825C34.338 113.722 34.492 113.722 34.5947 113.825C34.6973 113.927 34.6973 114.081 34.5947 114.184L27.7168 121.216C27.6141 121.216 27.5628 121.267 27.5115 121.267Z" fill="#3152AF"/>
<path d="M41.524 120.857H25.0479V161.303H41.524V120.857Z" fill="#556CC5"/>
<path d="M60.2071 120.857H41.6779V161.303H60.2071V120.857Z" fill="#3152AF"/>
<path d="M52.4053 112.798L60.2071 120.857H41.6779L33.6708 112.798H52.4053Z" fill="#3152AF"/>
<path d="M52.4053 109H33.6708V112.85H52.4053V109Z" fill="#556CC5"/>
<path d="M51.9947 143.441C47.9912 143.441 44.7576 140.412 44.7576 136.665C44.7576 132.919 47.9912 129.89 51.9947 129.89C55.9983 129.89 59.2319 132.919 59.2319 136.665C59.2319 140.412 55.9983 143.441 51.9947 143.441ZM51.9947 130.455C48.2992 130.455 45.2708 133.278 45.2708 136.717C45.2708 140.156 48.2992 142.979 51.9947 142.979C55.6903 142.979 58.7186 140.156 58.7186 136.717C58.7186 133.278 55.6903 130.455 51.9947 130.455Z" fill="#FCEEE5"/>
<path d="M60.2071 121.062H24.7398C24.5858 121.062 24.4832 120.959 24.4832 120.805C24.4832 120.651 24.5858 120.549 24.7398 120.549H60.2071C60.361 120.549 60.4637 120.651 60.4637 120.805C60.4637 120.959 60.361 121.062 60.2071 121.062Z" fill="#FCEEE5"/>
<path d="M41.5753 161.559C41.4213 161.559 41.3186 161.457 41.3186 161.303V121.113L33.4655 112.952C33.3629 112.85 33.3629 112.696 33.4655 112.593C33.5682 112.49 33.7222 112.49 33.8248 112.593L41.8319 120.908V161.303C41.8319 161.457 41.7293 161.559 41.5753 161.559Z" fill="#FCEEE5"/>
<g opacity="0.76">
<g opacity="0.76">
<g opacity="0.76">
<path opacity="0.76" d="M38.2903 126.708H29.0514V127.991H38.2903V126.708Z" fill="#FCEEE5"/>
</g>
<g opacity="0.76">
<path opacity="0.76" d="M38.2903 129.069H29.0514V130.352H38.2903V129.069Z" fill="#FCEEE5"/>
</g>
<g opacity="0.76">
<path opacity="0.76" d="M38.2903 131.43H29.0514V132.713H38.2903V131.43Z" fill="#FCEEE5"/>
</g>
</g>
</g>
<path d="M71.9098 134.972L69.9593 128.145C69.8054 127.375 71.1399 126.811 72.2177 127.221L72.731 127.427C73.2443 127.632 73.8602 127.58 74.3222 127.375L76.3239 126.503C77.0939 126.195 78.0691 126.349 78.4797 126.862L78.8903 127.427C79.147 127.786 79.7116 127.991 80.3275 127.94C81.4054 127.888 82.1753 128.556 81.816 129.172L79.0443 134.869L71.9098 134.972Z" fill="#FF9F9F"/>
<path opacity="0.44" d="M72.115 127.221L73.6035 134.972L74.784 135.074V127.221C74.7327 127.221 74.0654 127.735 72.115 127.221Z" fill="#FCEEE5"/>
<path opacity="0.44" d="M80.1221 127.991L77.6071 134.972H75.9646L78.7876 127.375C78.7876 127.324 79.2496 128.043 80.1221 127.991Z" fill="#FCEEE5"/>
<path d="M87.2053 167.411L65.2372 167.513C63.0815 167.513 61.285 165.973 61.285 164.074L61.131 144.262C61.0797 138.873 66.0584 134.458 72.1664 134.407L80.4814 134.356C86.2301 134.304 91.0036 138.462 91.0036 143.543L91.1576 163.92C91.1062 165.819 89.3611 167.359 87.2053 167.411Z" fill="#FFB3BA"/>
<path opacity="0.75" d="M87.2053 167.411L65.2372 167.513C63.0815 167.513 61.285 165.973 61.285 164.074L61.131 144.262C61.0797 138.873 66.0584 134.458 72.1664 134.407L80.4814 134.356C86.2301 134.304 91.0036 138.462 91.0036 143.543L91.1576 163.92C91.1062 165.819 89.3611 167.359 87.2053 167.411Z" fill="#FF8383"/>
<path d="M83.8177 163.048L65.1859 163.15C62.9788 163.15 61.1823 161.611 61.1823 159.66L61.0797 143.133C61.0283 138.359 65.4425 134.407 70.8832 134.356L78.2744 134.304C83.4071 134.253 87.6673 137.949 87.6673 142.517L87.7699 159.455C87.8213 161.457 86.0248 163.048 83.8177 163.048Z" fill="#FF9F9F"/>
<path d="M73.8089 140.464C73.7576 140.464 73.7062 140.464 73.6549 140.464C73.193 140.412 72.7823 140.156 72.6284 139.796C72.5257 139.488 72.577 139.18 72.7823 138.924L76.5806 134.253H77.9664L75.4 139.591C75.0921 140.104 74.4761 140.464 73.8089 140.464ZM76.7859 134.766L73.1416 139.232C73.039 139.334 73.039 139.437 73.0903 139.591C73.193 139.796 73.3983 139.899 73.6549 139.95C74.1682 140.002 74.6815 139.745 74.8354 139.386L77.0425 134.766H76.7859Z" fill="#FCEEE5"/>
<path d="M80.6354 140.361C79.9682 140.361 79.3522 140.053 79.0956 139.54L76.4779 134.253H77.8637L81.7133 138.873C81.9186 139.129 81.9699 139.437 81.8673 139.745C81.7133 140.104 81.354 140.361 80.8407 140.412C80.7894 140.361 80.6868 140.361 80.6354 140.361ZM77.2991 134.715L79.5576 139.283C79.7115 139.642 80.2248 139.848 80.7894 139.796C81.046 139.745 81.3027 139.642 81.354 139.437C81.4053 139.334 81.354 139.18 81.3027 139.078L77.6071 134.664L77.2991 134.715Z" fill="#FCEEE5"/>
<path d="M71.1399 135.126C70.8319 135.126 70.6266 134.92 70.6266 134.612V134.407C70.6266 134.304 70.6779 134.15 70.7806 134.048C70.8832 133.945 71.0372 133.894 71.1912 133.894L80.2248 133.843C80.5328 133.843 80.7381 134.048 80.7381 134.356V134.561C80.7381 134.715 80.6868 134.818 80.5841 134.92C80.4815 135.023 80.3788 135.074 80.2248 135.074L71.1399 135.126ZM80.1735 134.356L71.1399 134.407V134.612L80.1735 134.561V134.356Z" fill="#FCEEE5"/>
<path d="M29.5646 121.062C29.5133 121.062 29.4106 121.062 29.4106 121.011C29.308 120.908 29.308 120.754 29.4106 120.651L35.3133 114.543C35.4159 114.441 35.5699 114.441 35.6726 114.543C35.7752 114.646 35.7752 114.8 35.6726 114.903L29.7699 121.011C29.7186 121.062 29.6672 121.062 29.5646 121.062Z" fill="#FCEEE5"/>
<path d="M76.8373 150.267C70.7806 146.572 65.0833 152.115 64.4674 152.731C63.4921 151.756 58.1541 146.726 52.3541 150.267C45.9381 154.168 54.5612 170.747 59.1806 172.389C63.1842 173.775 64.3647 172.081 64.6213 171.619C64.878 172.081 66.0072 173.775 70.062 172.389C74.6815 170.747 83.2532 154.168 76.8373 150.267Z" fill="#FF6E7E"/>
<path opacity="0.4" d="M77.4531 150.729C78.993 156.889 72.4231 168.54 68.5735 169.823C64.57 171.209 63.3894 169.515 63.1328 169.053C62.8762 169.515 61.7469 171.209 57.6921 169.823C56.2549 169.31 54.4071 167.359 52.7646 164.793C54.6638 168.54 57.2301 171.671 59.1292 172.338C63.1328 173.724 64.3133 172.03 64.57 171.568C64.8266 172.03 65.9558 173.724 70.0107 172.338C74.4762 170.798 82.6372 155.349 77.4531 150.729Z" fill="#EA5454"/>
<path d="M64.5186 154.014C64.3646 154.014 64.262 153.912 64.262 153.758V151.807C64.262 150.216 63.7487 148.676 62.7735 147.444C62.6708 147.342 62.7222 147.188 62.8248 147.085C62.9275 146.982 63.0815 147.034 63.1841 147.136C64.2107 148.471 64.7753 150.113 64.7753 151.807V153.758C64.7753 153.86 64.6213 154.014 64.5186 154.014Z" fill="#763859"/>
<path d="M64.4673 154.22C62.5682 154.22 61.6443 152.834 61.6443 152.834C61.5417 152.731 61.593 152.577 61.6957 152.474C61.7983 152.423 61.9523 152.423 62.0549 152.526C62.1063 152.628 63.4921 154.63 66.4691 153.142C66.5718 153.09 66.7257 153.142 66.8284 153.244C66.8797 153.347 66.8284 153.501 66.7257 153.604C65.8019 154.066 65.0833 154.22 64.4673 154.22Z" fill="#763859"/>
<path d="M52.508 154.425C52.4567 154.425 52.4567 154.425 52.508 154.425C52.354 154.425 52.2513 154.271 52.2513 154.117C52.508 152.32 53.4832 151.602 54.2531 151.294C55.0743 150.986 55.7929 151.088 55.8443 151.088C55.9982 151.088 56.1009 151.242 56.0496 151.396C56.0496 151.55 55.8956 151.653 55.7416 151.602C55.639 151.602 53.1752 151.294 52.7646 154.219C52.7133 154.373 52.6106 154.425 52.508 154.425Z" fill="#FCEEE5"/>
<path d="M279.734 150.37C278.759 150.37 277.938 149.549 277.938 148.573V139.796C277.938 138.256 276.655 136.973 275.115 136.973H268.237C267.262 136.973 266.441 136.152 266.441 135.177C266.441 134.202 267.262 133.38 268.237 133.38H275.115C278.657 133.38 281.531 136.255 281.531 139.796V148.573C281.531 149.549 280.761 150.37 279.734 150.37Z" fill="#FF6E7E"/>
<path d="M237.287 138.051L243.241 167.102C243.241 167.154 243.292 167.154 243.292 167.154H269.88C269.931 167.154 269.931 167.154 269.931 167.102L273.832 133.38C273.832 133.329 273.832 133.329 273.781 133.329L238.775 133.175C236.773 133.175 234.874 133.996 233.54 135.485C232.667 136.46 233.334 138 234.669 138H237.235L237.287 138.051Z" fill="#FF9F9F"/>
<path opacity="0.56" d="M254.943 136.203C246.834 136.203 238.211 135.126 238.211 133.124C238.211 132.97 238.313 132.867 238.467 132.867C238.621 132.867 238.724 132.97 238.724 133.124C238.724 134.202 244.883 135.69 254.943 135.69C265.004 135.69 271.163 134.202 271.163 133.124C271.163 132.97 271.265 132.867 271.419 132.867C271.573 132.867 271.676 132.97 271.676 133.124C271.676 135.126 263.053 136.203 254.943 136.203Z" fill="#FCEEE5"/>
<path d="M241.701 150.113L244.678 165.203L268.34 165.357L269.777 150.934C269.88 150.883 260.333 158.685 241.701 150.113Z" fill="#FF6E7E"/>
<path d="M245.653 153.809L242.676 153.706H242.625L241.598 148.522L244.473 148.625C244.626 148.625 244.729 148.522 244.729 148.368C244.729 148.214 244.626 148.111 244.473 148.111L241.496 148.009L240.726 144.108L243.395 144.159C243.549 144.159 243.651 144.057 243.651 143.903C243.651 143.749 243.549 143.646 243.395 143.646L240.572 143.543L239.802 139.899C239.75 139.745 239.648 139.694 239.494 139.694C239.34 139.745 239.288 139.848 239.288 140.002L240.11 143.8L244.319 164.998C244.319 165.101 244.473 165.203 244.575 165.203H244.626C244.78 165.152 244.832 165.049 244.832 164.896L242.676 154.117L245.602 154.219C245.756 154.219 245.858 154.117 245.858 153.963C245.91 153.911 245.807 153.809 245.653 153.809Z" fill="#FCEEE5"/>
<path d="M288.511 172.287H284.508C273.678 172.287 264.901 162.483 264.901 150.421L309.556 150.678C309.504 163.612 300.111 172.287 288.511 172.287Z" fill="#3152AF"/>
<path opacity="0.57" d="M276.912 150.473L264.901 150.421C264.901 162.483 273.678 172.287 284.508 172.287H288.511C289.949 172.287 291.386 172.133 292.772 171.876C283.738 169.977 276.912 161.097 276.912 150.473Z" fill="#4D67C2"/>
<path d="M291.283 163.356C291.027 163.356 290.821 163.304 290.565 163.253C289.179 162.74 288.819 161.046 288.717 160.327C288.563 159.147 288.717 157.966 288.819 156.837C288.871 156.17 288.973 155.503 288.973 154.835C288.973 154.681 288.973 154.476 288.871 154.374C288.871 154.374 288.819 154.322 288.717 154.322C288.563 154.374 288.409 154.527 288.357 154.681C288.306 154.887 288.306 155.143 288.357 155.4C288.357 155.554 288.409 155.657 288.409 155.811C288.46 156.786 287.896 157.71 287.023 158.172C286.15 158.634 285.073 158.531 284.303 157.915C283.584 157.351 283.122 156.427 282.968 155.041C282.917 154.784 282.917 154.528 282.917 154.271C282.865 153.501 282.814 152.782 282.557 152.166C282.25 151.397 281.736 150.935 280.915 150.781L278.554 150.267L298.11 150.37L298.161 150.524C298.315 150.883 298.418 151.243 298.52 151.551C298.674 152.372 298.828 153.193 298.88 154.014C298.931 154.733 298.931 155.554 298.674 156.324C298.366 157.197 297.699 157.812 296.929 157.966C296.467 158.069 295.954 157.915 295.595 157.658C295.235 157.402 295.03 157.043 294.979 156.683C294.979 156.632 294.979 156.581 294.979 156.529C294.979 156.375 294.927 156.221 294.876 156.221C294.722 156.273 294.568 156.478 294.568 156.735C294.517 157.248 294.465 157.812 294.465 158.326C294.465 159.25 294.414 160.174 294.157 161.046C293.85 161.97 293.182 162.791 292.361 163.202C291.95 163.253 291.591 163.356 291.283 163.356ZM288.768 153.809C288.922 153.809 289.076 153.86 289.23 153.963C289.487 154.22 289.487 154.63 289.487 154.835C289.487 155.503 289.384 156.221 289.333 156.889C289.23 158.018 289.127 159.147 289.23 160.276C289.281 160.738 289.538 162.329 290.719 162.74C291.232 162.945 291.745 162.791 292.053 162.637C292.72 162.278 293.336 161.559 293.593 160.789C293.85 159.968 293.901 159.096 293.901 158.223C293.901 157.71 293.952 157.145 294.004 156.581C294.055 156.221 294.26 155.811 294.568 155.657C294.722 155.554 294.927 155.605 295.081 155.708C295.338 155.862 295.389 156.17 295.389 156.427C295.389 156.478 295.389 156.529 295.389 156.581C295.441 156.837 295.595 157.043 295.8 157.197C296.057 157.402 296.416 157.504 296.775 157.402C297.494 157.248 297.956 156.632 298.161 156.119C298.418 155.451 298.418 154.681 298.366 154.014C298.315 153.193 298.212 152.423 298.007 151.602C297.956 151.345 297.904 151.089 297.75 150.832L282.147 150.729C282.506 151.037 282.814 151.397 283.019 151.91C283.327 152.628 283.379 153.45 283.43 154.168C283.43 154.425 283.481 154.681 283.481 154.938C283.635 156.17 283.995 156.991 284.611 157.453C285.227 157.915 286.099 158.018 286.766 157.658C287.434 157.299 287.896 156.529 287.844 155.811C287.844 155.708 287.844 155.554 287.793 155.451C287.742 155.143 287.742 154.835 287.793 154.528C287.896 154.22 288.152 153.912 288.511 153.86C288.614 153.809 288.717 153.809 288.768 153.809Z" fill="#FCEEE5"/>
<path d="M235.747 163.972C235.747 167.411 232.975 170.182 229.536 170.182C226.097 170.182 223.326 167.411 223.326 163.972C223.326 160.533 226.097 153.655 229.536 153.655C232.975 153.655 235.747 160.533 235.747 163.972Z" fill="#FCEEE5"/>
<path d="M229.588 170.439C226.046 170.439 223.12 167.565 223.12 163.972C223.12 160.43 225.892 153.398 229.588 153.398C233.232 153.398 236.055 160.43 236.055 163.972C236.004 167.513 233.129 170.439 229.588 170.439ZM229.588 153.911C226.405 153.911 223.634 160.635 223.634 163.972C223.634 167.257 226.303 169.926 229.588 169.926C232.873 169.926 235.542 167.257 235.542 163.972C235.49 160.635 232.77 153.911 229.588 153.911Z" fill="#FCEEE5"/>
<path d="M252.018 163.972C252.018 167.411 249.246 170.182 245.807 170.182C242.368 170.182 239.596 167.411 239.596 163.972C239.596 160.533 242.368 153.655 245.807 153.655C249.246 153.655 252.018 160.533 252.018 163.972Z" fill="#FCEEE5"/>
<path d="M245.807 170.439C242.266 170.439 239.34 167.565 239.34 163.972C239.34 160.43 242.112 153.398 245.807 153.398C249.451 153.398 252.274 160.43 252.274 163.972C252.274 167.513 249.349 170.439 245.807 170.439ZM245.807 153.911C242.625 153.911 239.853 160.635 239.853 163.972C239.853 167.257 242.522 169.926 245.807 169.926C249.092 169.926 251.761 167.257 251.761 163.972C251.761 160.635 248.989 153.911 245.807 153.911Z" fill="#FCEEE5"/>
<path d="M253.301 163.869L238.775 163.664C238.365 163.664 238.005 163.818 237.749 164.074C237.543 163.92 237.287 163.869 237.03 163.869L222.504 163.664C221.581 163.664 220.913 164.536 221.17 165.409L223.634 174.186C223.788 174.75 224.352 175.161 224.917 175.161H234.258C234.874 175.161 235.388 174.802 235.542 174.237L237.851 167L239.853 174.186C240.007 174.75 240.572 175.161 241.136 175.161H250.478C251.094 175.161 251.607 174.802 251.761 174.237L254.481 165.665C254.841 164.793 254.225 163.92 253.301 163.869Z" fill="#4D67C2"/>
<path d="M254.943 166.795H220.811C220.041 166.795 219.476 166.179 219.476 165.46V163.612C219.476 162.842 220.092 162.278 220.811 162.278H254.943C255.713 162.278 256.278 162.894 256.278 163.612V165.46C256.278 166.179 255.662 166.795 254.943 166.795Z" fill="#3152AF"/>
<path d="M272.703 184.965H264.747C263.361 184.965 262.232 183.835 262.232 182.45V181.012C262.232 179.627 263.361 178.497 264.747 178.497H272.703C274.089 178.497 275.218 179.627 275.218 181.012V182.45C275.218 183.835 274.089 184.965 272.703 184.965Z" fill="#FF6E7E"/>
<path d="M278.349 167.719C277.835 167.719 277.322 167.873 276.911 168.129C276.552 166.897 275.372 166.025 274.037 166.025C273.319 166.025 272.651 166.281 272.087 166.743C271.368 165.717 270.239 165.05 268.904 165.05C267.467 165.05 266.235 165.819 265.568 167C265.004 166.435 264.234 166.076 263.361 166.076C262.026 166.076 260.846 166.949 260.487 168.181C260.076 167.924 259.563 167.77 259.05 167.77C257.51 167.77 256.278 169.002 256.278 170.542C256.278 172.081 257.51 173.313 259.05 173.313C260.23 173.313 261.205 172.595 261.616 171.568C262.129 171.927 262.745 172.133 263.361 172.133C264.285 172.133 265.106 171.722 265.671 171.055C266.338 172.133 267.57 172.8 268.904 172.8C270.136 172.8 271.265 172.184 271.984 171.26C272.549 171.773 273.267 172.081 274.037 172.081C274.704 172.081 275.32 171.876 275.782 171.517C276.193 172.543 277.168 173.262 278.349 173.262C279.888 173.262 281.12 172.03 281.12 170.49C281.12 168.95 279.888 167.719 278.349 167.719Z" fill="#FFB1A8"/>
<path d="M278.349 173.467C277.219 173.467 276.193 172.851 275.68 171.825C274.55 172.492 273.011 172.389 271.984 171.568C271.214 172.492 270.085 173.005 268.904 173.005C267.621 173.005 266.389 172.389 265.619 171.414C265.004 171.979 264.182 172.338 263.361 172.338C262.796 172.338 262.232 172.184 261.719 171.876C261.205 172.903 260.179 173.519 259.05 173.519C257.407 173.519 256.021 172.184 256.021 170.49C256.021 168.848 257.356 167.462 259.05 167.462C259.512 167.462 259.973 167.565 260.384 167.77C260.897 166.538 262.078 165.768 263.412 165.768C264.182 165.768 264.952 166.025 265.568 166.589C266.338 165.46 267.621 164.793 268.956 164.793C270.239 164.793 271.419 165.409 272.189 166.384C272.754 165.973 273.37 165.768 274.089 165.768C275.423 165.768 276.604 166.538 277.117 167.77C277.527 167.565 277.989 167.462 278.451 167.462C280.094 167.462 281.48 168.796 281.48 170.49C281.377 172.133 280.042 173.467 278.349 173.467ZM275.936 171.055L276.039 171.363C276.398 172.338 277.322 172.954 278.349 172.954C279.735 172.954 280.864 171.825 280.864 170.439C280.864 169.053 279.735 167.924 278.349 167.924C277.887 167.924 277.425 168.078 277.014 168.334L276.758 168.488L276.655 168.18C276.296 167 275.218 166.23 274.037 166.23C273.37 166.23 272.754 166.435 272.292 166.897L272.035 167.103L271.881 166.846C271.214 165.871 270.085 165.255 268.904 165.255C267.621 165.255 266.441 165.973 265.773 167.051L265.619 167.359L265.363 167.103C264.85 166.538 264.131 166.23 263.361 166.23C262.129 166.23 261.103 167 260.743 168.18L260.641 168.488L260.384 168.334C259.973 168.078 259.512 167.975 259.05 167.975C257.664 167.975 256.535 169.104 256.535 170.49C256.535 171.876 257.664 173.005 259.05 173.005C260.076 173.005 261 172.389 261.359 171.414L261.462 171.106L261.719 171.311C262.181 171.671 262.745 171.825 263.31 171.825C264.131 171.825 264.901 171.465 265.414 170.849L265.619 170.593L265.825 170.901C266.492 171.927 267.621 172.543 268.853 172.543C269.982 172.543 271.009 172.03 271.727 171.106L271.881 170.901L272.087 171.106C273.011 171.979 274.55 172.081 275.577 171.311L275.936 171.055Z" fill="#FCEEE5"/>
<path d="M269.52 182.706H267.005C260.23 182.706 254.738 177.214 254.738 170.439L282.711 170.593C282.711 177.83 276.809 182.706 269.52 182.706Z" fill="#FF8383"/>
<path d="M282.198 174.134H255.149C254.995 174.134 254.892 174.032 254.892 173.878C254.892 173.724 254.995 173.621 255.149 173.621H282.198C282.352 173.621 282.455 173.724 282.455 173.878C282.455 174.032 282.352 174.134 282.198 174.134Z" fill="#763859"/>
<path d="M108.962 134.964C112.403 151.502 125.13 165.353 142.073 169.193C156.959 172.382 174.017 173.793 187.747 167.888C205.687 157.98 209.952 133.665 208.309 114.298C203.155 100.269 129.364 103.752 114.192 104.835C99.9925 104.546 107.755 126.302 108.962 134.964Z" fill="#763859"/>
<path d="M114.091 108.609C112.718 108.821 112.252 110.488 113.212 111.511C117.702 115.985 130.626 125.118 161.706 126.04C189.875 126.828 199.707 120.21 203.069 115.991C204.303 114.497 203.316 112.166 201.378 111.677C190.101 109.141 152.676 101.921 114.091 108.609Z" fill="#EA5454"/>
<path d="M198.628 115.085C197.318 112.295 193.188 112.265 190.599 113.597C188.01 114.93 185.832 117.238 182.899 117.818C179.855 118.423 176.58 117.056 174.404 114.77C173.62 113.943 172.986 113.02 172.051 112.288C169.497 110.331 165.861 110.958 162.783 111.453C157.927 112.192 152.437 112.008 148.296 108.938C146.966 107.883 145.865 106.594 144.462 105.496C139.892 101.991 132.724 102.386 129.16 106.456C128.434 107.226 127.925 108.123 126.915 108.542C125.007 109.354 122.842 107.901 120.798 107.255C119.115 106.82 111.633 107.767 112.865 110.696C113.07 111.184 113.632 112.064 114.099 112.43C118.123 115.707 122.394 118.21 126.7 119.63C140.341 124.315 146.226 124.823 156.993 126.076C163.976 126.859 172.438 126.395 179.356 125.761C182.835 125.41 186.353 124.989 189.738 124.123C193.792 123.098 201.215 120.554 198.628 115.085Z" fill="#FFC5A6"/>
<path opacity="0.58" d="M127.145 112.501C129.236 113.082 131.41 114.541 133.286 113.794C134.299 113.373 134.882 112.515 135.538 111.699C138.459 108.426 143.748 107.465 148.097 109.185C146.907 108.21 145.835 107.027 144.646 106.052C140.059 102.531 132.864 102.927 129.287 107.016C128.558 107.789 128.047 108.69 127.034 109.112C125.119 109.928 122.946 108.468 120.894 107.819C119.205 107.382 111.695 108.333 112.932 111.275C113.138 111.765 113.646 112.064 114.116 112.431C115.82 113.523 117.452 114.573 119.122 115.553C118.764 112.941 125.568 112.038 127.145 112.501Z" fill="#FFAC79"/>
<path opacity="0.58" d="M188.416 121.457C191.364 120.874 193.514 118.62 196.156 117.21C196.986 116.772 198.107 116.505 199.149 116.376C199.134 115.72 198.973 114.978 198.627 114.22C197.31 111.412 193.158 111.382 190.556 112.723C187.954 114.063 185.765 116.386 182.816 116.969C181.286 117.274 179.735 117.104 178.234 116.501C178.771 117.093 179.341 117.798 179.878 118.39C182.064 120.69 185.356 122.066 188.416 121.457Z" fill="#FFAC79"/>
<path d="M141.447 110.495C140.664 110.681 139.769 110.895 139.303 111.545C138.765 112.152 138.875 113.324 139.641 113.681C140.479 114.081 141.281 113.351 142.131 113.388C143.35 113.457 144.556 115.087 145.608 114.597C146.548 114.133 146.187 112.722 145.584 111.907C144.803 110.894 143.646 110.031 142.354 109.92C141.062 109.808 139.78 110.532 139.482 111.742" fill="#763859"/>
<path d="M124.166 112.186C123.737 111.75 122.916 112.006 122.786 112.574C122.657 113.143 123.08 113.76 123.588 114.057C124.095 114.355 124.721 114.445 125.385 114.467C126.306 114.546 127.647 114.227 127.38 113.334C127.313 113.111 127.135 112.914 126.957 112.718C126.131 111.958 125.15 111.474 124.05 111.198C123.464 111.038 122.565 111.431 122.955 111.936" fill="#763859"/>
<path d="M142.863 118.563C142.891 118.857 143.104 119.168 143.019 119.489C142.883 120.244 142.27 120.811 141.522 120.929C140.14 121.138 138.463 118.948 140.143 118.729C140.143 118.729 142.635 117.594 142.863 118.563Z" fill="#763859"/>
<path d="M161.362 113.738C160.585 113.744 159.657 113.845 159.304 114.467C158.951 115.09 159.329 115.958 159.943 116.41C160.557 116.863 161.368 116.969 162.139 117.145C162.876 117.208 163.798 117.288 164.224 116.708C164.918 115.824 163.847 114.643 162.831 114.047C161.815 113.451 160.457 113.116 159.69 113.957" fill="#763859"/>
<path d="M162.276 123.094C161.668 122.461 160.797 121.95 160.014 122.136C159.232 122.323 158.749 123.515 159.397 124.078C159.575 124.275 159.905 124.376 160.201 124.366C161.597 124.632 163.005 124.536 164.353 124.036C164.415 123.243 163.511 122.62 162.662 122.583C161.813 122.546 160.958 122.69 160.226 122.445" fill="#763859"/>
<path d="M178.351 119.531C177.467 119.381 176.944 120.644 177.514 121.348C178.044 122.121 179.001 122.312 179.89 122.28C180.411 122.216 180.971 122.083 181.246 121.598C181.56 121.044 181.102 120.314 180.521 119.973C179.939 119.632 179.274 119.61 178.608 119.589" fill="#763859"/>
<path d="M191.255 115.956C190.241 116.198 190.295 117.994 191.363 118.342C192.432 118.69 193.368 117.382 192.914 116.466C192.386 115.506 191.255 115.956 191.255 115.956Z" fill="#763859"/>
<g opacity="0.43">
<path opacity="0.43" d="M300.932 182.013C304.039 166.924 299.046 153.998 297.826 139.187C296.661 125.152 301.709 113.336 304.538 100.022C307.034 88.1509 306.202 74.6707 303.04 62.9657C298.769 46.9892 288.839 32.2331 274.582 23.2463C252.393 9.21137 222.77 10.8756 198.195 20.5281C187.932 24.5777 177.947 29.9586 166.963 31.29C150.931 33.2871 135.287 26.4638 119.643 22.4142C98.3413 16.8668 74.9868 16.4785 54.9052 25.1879C32.1609 35.1177 15.9625 57.5292 17.8486 82.2151C18.6807 93.4209 23.0632 104.405 21.5654 115.555C20.0121 126.816 13.1888 136.247 9.58297 146.842C4.64579 161.321 4.202 182.623 12.1348 197.324H295.551C298.048 192.442 299.878 187.283 300.932 182.013Z" fill="#FFB1A8"/>
</g>
<g opacity="0.43">
<path opacity="0.43" d="M319.932 169.013C323.039 153.924 318.046 140.998 316.826 126.187C315.661 112.152 320.709 100.336 323.538 87.0223C326.035 75.1509 325.202 61.6707 322.04 49.9657C317.769 33.9892 307.839 19.2331 293.582 10.2463C271.393 -3.78863 241.77 -2.1244 217.195 7.52807C206.932 11.5777 196.947 16.9586 185.963 18.29C169.931 20.2871 154.287 13.4638 138.643 9.41418C117.341 3.86678 93.9868 3.47846 73.9052 12.1879C51.1609 22.1177 34.9625 44.5292 36.8486 69.2151C37.6807 80.4209 42.0632 91.4047 40.5654 102.555C39.0121 113.816 32.1888 123.247 28.583 133.842C23.6458 148.321 23.202 169.623 31.1348 184.324H314.551C317.048 179.442 318.878 174.283 319.932 169.013Z" fill="#FFB1A8"/>
</g>
</svg>
